<svg version="1.2" xmlns="http://www.w3.org/2000/svg" viewBox="0 0 1000 1000" width="1000" height="1000">
	<title>logo-ai</title>
	<style>
		.s0 { fill: #ebebeb } 
		.s1 { fill: #c7c7c7 } 
		.s2 { fill: #a6a6a6 } 
		.s3 { fill: #dbdbdb } 
		.s4 { fill: #ffc727 } 
		.s5 { opacity: .4;fill: #b04800 } 
		.s6 { fill: #ffffff } 
		.s7 { fill: #455a64 } 
		.s8 { fill: #37474f } 
		.s9 { fill: #263238 } 
		.s10 { fill: #f9802d } 
		.s11 { opacity: .3;fill: #ffffff } 
		.s12 { fill: #f7a9a0 } 
		.s13 { opacity: .1;fill: #000000 } 
		.s14 { opacity: .3;fill: #000000 } 
		.s15 { fill: #ad6359 } 
		.s16 { opacity: .3;fill: #00ff00 } 
		.s17 { fill: #ff98b9 } 
		.s18 { opacity: .2;fill: #263238 } 
	</style>
	<g id="Background Complete">
		<g id="&lt;Group&gt;">
			<g id="&lt;Group&gt;">
				<path id="&lt;Path&gt;" class="s0" d="m318.4 69.7c86.9-1.4 183.4-1.3 270.3 0-86.9 1.3-183.4 1.3-270.3 0z"/>
			</g>
			<g id="&lt;Group&gt;">
				<path id="&lt;Path&gt;" class="s0" d="m287.8 106.3c89.5-1.3 189-1.3 278.5 0-89.6 1.3-189 1.3-278.5 0z"/>
			</g>
			<g id="&lt;Group&gt;">
				<path id="&lt;Path&gt;" class="s0" d="m346.4 69.7q2 18.3 0 36.6-2.1-18.3 0-36.6z"/>
			</g>
			<g id="&lt;Group&gt;">
				<path id="&lt;Path&gt;" class="s0" d="m482.7 69.7q2.1 18.3 0 36.6-2-18.3 0-36.6z"/>
			</g>
			<g id="&lt;Group&gt;">
				<path id="&lt;Path&gt;" class="s0" d="m414.6 106.1q2 18.4 0 36.7-2.1-18.3 0-36.7z"/>
			</g>
			<g id="&lt;Group&gt;">
				<path id="&lt;Path&gt;" class="s0" d="m412.9 809.8c86.9-1.4 183.4-1.3 270.3 0-86.9 1.3-183.4 1.3-270.3 0z"/>
			</g>
			<g id="&lt;Group&gt;">
				<path id="&lt;Path&gt;" class="s0" d="m348.1 846.4c89.5-1.3 189-1.3 278.5 0-89.6 1.3-189 1.3-278.5 0z"/>
			</g>
			<g id="&lt;Group&gt;">
				<path id="&lt;Path&gt;" class="s0" d="m672.4 582.5c55.8-1.3 117.6-1.3 173.4 0-55.8 1.3-117.6 1.3-173.4 0z"/>
			</g>
			<g id="&lt;Group&gt;">
				<path id="&lt;Path&gt;" class="s0" d="m733.8 618.9c55.8-1.4 117.6-1.4 173.4 0-55.8 1.3-117.6 1.3-173.4 0z"/>
			</g>
			<g id="&lt;Group&gt;">
				<path id="&lt;Path&gt;" class="s0" d="m482.8 809.8q2 18.3 0 36.6-2.1-18.3 0-36.6z"/>
			</g>
			<g id="&lt;Group&gt;">
				<path id="&lt;Path&gt;" class="s0" d="m619.2 809.8q2.1 18.3 0 36.6-2.1-18.3 0-36.6z"/>
			</g>
			<g id="&lt;Group&gt;">
				<path id="&lt;Path&gt;" class="s0" d="m755.6 618.9q2.1 18.3 0 36.6-2.1-18.3 0-36.6z"/>
			</g>
			<g id="&lt;Group&gt;">
				<path id="&lt;Path&gt;" class="s0" d="m892 618.9q2.1 18.3 0 36.6-2.1-18.3 0-36.6z"/>
			</g>
			<g id="&lt;Group&gt;">
				<path id="&lt;Path&gt;" class="s0" d="m414.6 846.2q2 18.3 0 36.7-2.1-18.4 0-36.7z"/>
			</g>
			<g id="&lt;Group&gt;">
				<path id="&lt;Path&gt;" class="s0" d="m551.2 846.2q2 18.3 0 36.7-2.1-18.4 0-36.7z"/>
			</g>
			<g id="&lt;Group&gt;">
				<path id="&lt;Path&gt;" class="s0" d="m824.4 581.5q2.1 18.3 0 36.6-2-18.3 0-36.6z"/>
			</g>
			<g id="&lt;Group&gt;">
				<path id="&lt;Path&gt;" class="s0" d="m229.2 882.4c-32.4 1.3-65.1 1.3-97.6 0 32.5-1.4 65.2-1.4 97.6 0z"/>
			</g>
			<g id="&lt;Group&gt;">
				<path id="&lt;Path&gt;" class="s0" d="m266.2 846c-55.8 1.3-117.6 1.3-173.4 0 55.8-1.3 117.6-1.3 173.4 0z"/>
			</g>
			<g id="&lt;Group&gt;">
				<path id="&lt;Path&gt;" class="s0" d="m108 846q-2.1-18.3 0-36.6 2.1 18.3 0 36.6z"/>
			</g>
			<g id="&lt;Group&gt;">
				<path id="&lt;Path&gt;" class="s0" d="m175.6 883.4q-2.1-18.3 0-36.6 2 18.3 0 36.6z"/>
			</g>
			<g id="&lt;Group&gt;">
				<path id="&lt;Path&gt;" class="s0" d="m424.4 324.3c89.5-1.4 189-1.3 278.5 0-89.5 1.3-189 1.3-278.5 0z"/>
			</g>
			<g id="&lt;Group&gt;">
				<path id="&lt;Path&gt;" class="s0" d="m520.8 360.9c60.2-1.3 127.1-1.3 187.2 0-60.2 1.3-127 1.3-187.2 0z"/>
			</g>
			<g id="&lt;Group&gt;">
				<path id="&lt;Path&gt;" class="s0" d="m619.4 287.6q2 18.4 0 36.7-2.1-18.3 0-36.7z"/>
			</g>
			<g id="&lt;Group&gt;">
				<path id="&lt;Path&gt;" class="s0" d="m551.2 324.3q2 18.3 0 36.6-2.1-18.3 0-36.6z"/>
			</g>
			<g id="&lt;Group&gt;">
				<path id="&lt;Path&gt;" class="s0" d="m687.5 324.3q2.1 18.3 0 36.6-2-18.3 0-36.6z"/>
			</g>
			<g id="&lt;Group&gt;">
				<path id="&lt;Path&gt;" class="s0" d="m382.3 466.9c38.6-1.3 77.4-1.3 115.9 0-38.5 1.4-77.3 1.4-115.9 0z"/>
			</g>
			<g id="&lt;Group&gt;">
				<path id="&lt;Path&gt;" class="s0" d="m355.2 503.5c60.2-1.3 127.1-1.3 187.2 0-60.2 1.3-127 1.4-187.2 0z"/>
			</g>
			<g id="&lt;Group&gt;">
				<path id="&lt;Path&gt;" class="s0" d="m414.6 430.3q2.1 18.3 0 36.6-2-18.3 0-36.6z"/>
			</g>
			<g id="&lt;Group&gt;">
				<path id="&lt;Path&gt;" class="s0" d="m482.8 466.9q2 18.3 0 36.6-2.1-18.3 0-36.6z"/>
			</g>
		</g>
		<g id="&lt;Group&gt;">
			<g id="&lt;Group&gt;">
				<path id="&lt;Path&gt;" class="s1" d="m905.6 790.7h-811.2v-26.5h811.2z"/>
				<g id="&lt;Group&gt;">
					<path id="&lt;Path&gt;" class="s0" d="m865.1 761.2l-18.2-91.9 2.9-0.6 18.2 91.9z"/>
					<path id="&lt;Path&gt;" class="s0" d="m853.6 763.8l-2.9-0.7 21.8-95.2 2.9 0.7z"/>
					<path id="&lt;Path&gt;" class="s0" d="m857.4 763.9l-2.8-0.9 28.6-93.2 2.8 0.8z"/>
					<path id="&lt;Path&gt;" class="s0" d="m876.8 761.3l-28-88.7 2.8-0.9 28 88.7z"/>
					<path id="&lt;Path&gt;" class="s0" d="m865.9 761.9l-2.2-94.2 3-0.1 2.1 94.2z"/>
					<path id="&lt;Path&gt;" class="s2" d="m881.3 764.2h-32.9l6.5-41.2h19.9z"/>
				</g>
				<g id="&lt;Group&gt;">
					<path id="&lt;Path&gt;" class="s3" d="m766.9 764.2h-67.7v-100h67.7z"/>
					<path id="&lt;Path&gt;" class="s2" d="m746.9 664.2h-27.6v-20.2h27.6z"/>
					<path id="&lt;Path&gt;" class="s0" d="m757.2 736.1h-48.6v-46.5h48.6z"/>
				</g>
				<g id="&lt;Group&gt;">
					<path id="&lt;Path&gt;" class="s3" d="m829.9 764.2h-58.1v-113h58.1z"/>
					<path id="&lt;Path&gt;" class="s1" d="m812.7 651.2h-23.7v-17.3h23.7z"/>
					<path id="&lt;Path&gt;" class="s1" d="m829.9 734.1h-58.1v-39.8h58.1z"/>
				</g>
			</g>
		</g>
	</g>
	<g id="Mirror">
		<g id="&lt;Group&gt;">
			<g id="&lt;Group&gt;">
				<path id="&lt;Path&gt;" class="s4" d="m517 570.7h330v-434.6h-330z"/>
				<path id="&lt;Path&gt;" class="s5" d="m517 570.7h330v-434.6h-330z"/>
			</g>
			<path id="&lt;Path&gt;" class="s6" d="m563.1 524.5h237.8v-342.2h-237.8z"/>
			<g id="&lt;Group&gt;">
				<path id="&lt;Path&gt;" class="s4" d="m815.5 159.5c0 4.9 4 8.9 8.9 8.9 5 0 9-4 9-8.9 0-4.9-4-9-9-9-4.9 0-8.9 4.1-8.9 9z"/>
				<path id="&lt;Path&gt;" class="s4" d="m768.8 159.5c0 4.9 4 8.9 8.9 8.9 4.9 0 9-4 9-8.9 0-4.9-4.1-9-9-9-4.9 0-8.9 4.1-8.9 9z"/>
				<path id="&lt;Path&gt;" class="s4" d="m722.1 159.5c0 4.9 4 8.9 8.9 8.9 4.9 0 8.9-4 8.9-8.9 0-4.9-4-9-8.9-9-4.9 0-8.9 4.1-8.9 9z"/>
				<path id="&lt;Path&gt;" class="s4" d="m675.3 159.5c0 4.9 4.1 8.9 9 8.9 4.9 0 8.9-4 8.9-8.9 0-4.9-4-9-8.9-9-4.9 0-9 4.1-9 9z"/>
				<path id="&lt;Path&gt;" class="s4" d="m628.6 159.5c0 4.9 4 8.9 9 8.9 4.9 0 8.9-4 8.9-8.9 0-4.9-4-9-8.9-9-5 0-9 4.1-9 9z"/>
				<path id="&lt;Path&gt;" class="s4" d="m581.9 159.5c0 4.9 4 8.9 9 8.9 4.9 0 8.9-4 8.9-8.9 0-4.9-4-9-8.9-9-5 0-9 4.1-9 9z"/>
				<path id="&lt;Path&gt;" class="s4" d="m768.8 547.3c0 5 4 9 8.9 9 4.9 0 9-4 9-9 0-4.9-4.1-8.9-9-8.9-4.9 0-8.9 4-8.9 8.9z"/>
				<path id="&lt;Path&gt;" class="s4" d="m722.1 547.3c0 5 4 9 8.9 9 4.9 0 8.9-4 8.9-9 0-4.9-4-8.9-8.9-8.9-4.9 0-8.9 4-8.9 8.9z"/>
				<path id="&lt;Path&gt;" class="s4" d="m675.3 547.3c0 5 4.1 9 9 9 4.9 0 8.9-4 8.9-9 0-4.9-4-8.9-8.9-8.9-4.9 0-9 4-9 8.9z"/>
				<path id="&lt;Path&gt;" class="s4" d="m628.6 547.3c0 5 4 9 9 9 4.9 0 8.9-4 8.9-9 0-4.9-4-8.9-8.9-8.9-5 0-9 4-9 8.9z"/>
				<path id="&lt;Path&gt;" class="s4" d="m581.9 547.3c0 5 4 9 9 9 4.9 0 8.9-4 8.9-9 0-4.9-4-8.9-8.9-8.9-5 0-9 4-9 8.9z"/>
				<path id="&lt;Path&gt;" class="s4" d="m815.5 208c0 4.9 4 8.9 8.9 8.9 5 0 9-4 9-8.9 0-5-4-9-9-9-4.9 0-8.9 4-8.9 9z"/>
				<path id="&lt;Path&gt;" class="s4" d="m815.5 256.5c0 4.9 4 8.9 8.9 8.9 5 0 9-4 9-8.9 0-5-4-9-9-9-4.9 0-8.9 4-8.9 9z"/>
				<path id="&lt;Path&gt;" class="s4" d="m815.5 304.9c0 5 4 9 8.9 9 5 0 9-4 9-9 0-4.9-4-8.9-9-8.9-4.9 0-8.9 4-8.9 8.9z"/>
				<path id="&lt;Path&gt;" class="s4" d="m815.5 353.4c0 4.9 4 9 8.9 9 5 0 9-4.1 9-9 0-4.9-4-8.9-9-8.9-4.9 0-8.9 4-8.9 8.9z"/>
				<path id="&lt;Path&gt;" class="s4" d="m815.5 401.9c0 4.9 4 8.9 8.9 8.9 5 0 9-4 9-8.9 0-5-4-9-9-9-4.9 0-8.9 4-8.9 9z"/>
				<path id="&lt;Path&gt;" class="s4" d="m815.5 450.4c0 4.9 4 8.9 8.9 8.9 5 0 9-4 9-8.9 0-5-4-9-9-9-4.9 0-8.9 4-8.9 9z"/>
				<path id="&lt;Path&gt;" class="s4" d="m815.5 498.8c0 5 4 9 8.9 9 5 0 9-4 9-9 0-4.9-4-8.9-9-8.9-4.9 0-8.9 4-8.9 8.9z"/>
				<path id="&lt;Path&gt;" class="s4" d="m815.5 547.3c0 5 4 9 8.9 9 5 0 9-4 9-9 0-4.9-4-8.9-9-8.9-4.9 0-8.9 4-8.9 8.9z"/>
				<path id="&lt;Path&gt;" class="s4" d="m530.6 159.5c0 4.9 4 8.9 9 8.9 4.9 0 8.9-4 8.9-8.9 0-4.9-4-9-8.9-9-5 0-9 4.1-9 9z"/>
				<path id="&lt;Path&gt;" class="s4" d="m530.6 208c0 4.9 4 8.9 9 8.9 4.9 0 8.9-4 8.9-8.9 0-5-4-9-8.9-9-5 0-9 4-9 9z"/>
				<path id="&lt;Path&gt;" class="s4" d="m530.6 256.5c0 4.9 4 8.9 9 8.9 4.9 0 8.9-4 8.9-8.9 0-5-4-9-8.9-9-5 0-9 4-9 9z"/>
				<path id="&lt;Path&gt;" class="s4" d="m530.6 304.9c0 5 4 9 9 9 4.9 0 8.9-4 8.9-9 0-4.9-4-8.9-8.9-8.9-5 0-9 4-9 8.9z"/>
				<path id="&lt;Path&gt;" class="s4" d="m530.6 353.4c0 4.9 4 9 9 9 4.9 0 8.9-4.1 8.9-9 0-4.9-4-8.9-8.9-8.9-5 0-9 4-9 8.9z"/>
				<path id="&lt;Path&gt;" class="s4" d="m530.6 401.9c0 4.9 4 8.9 9 8.9 4.9 0 8.9-4 8.9-8.9 0-5-4-9-8.9-9-5 0-9 4-9 9z"/>
				<path id="&lt;Path&gt;" class="s4" d="m530.6 450.4c0 4.9 4 8.9 9 8.9 4.9 0 8.9-4 8.9-8.9 0-5-4-9-8.9-9-5 0-9 4-9 9z"/>
				<path id="&lt;Path&gt;" class="s4" d="m530.6 498.8c0 5 4 9 9 9 4.9 0 8.9-4 8.9-9 0-4.9-4-8.9-8.9-8.9-5 0-9 4-9 8.9z"/>
				<path id="&lt;Path&gt;" class="s4" d="m530.6 547.3c0 5 4 9 9 9 4.9 0 8.9-4 8.9-9 0-4.9-4-8.9-8.9-8.9-5 0-9 4-9 8.9z"/>
			</g>
			<g id="&lt;Group&gt;" style="opacity: .6">
				<path id="&lt;Path&gt;" class="s6" d="m815.5 159.5c0 4.9 4 8.9 8.9 8.9 5 0 9-4 9-8.9 0-4.9-4-9-9-9-4.9 0-8.9 4.1-8.9 9z"/>
				<path id="&lt;Path&gt;" class="s6" d="m768.8 159.5c0 4.9 4 8.9 8.9 8.9 4.9 0 9-4 9-8.9 0-4.9-4.1-9-9-9-4.9 0-8.9 4.1-8.9 9z"/>
				<path id="&lt;Path&gt;" class="s6" d="m722.1 159.5c0 4.9 4 8.9 8.9 8.9 4.9 0 8.9-4 8.9-8.9 0-4.9-4-9-8.9-9-4.9 0-8.9 4.1-8.9 9z"/>
				<path id="&lt;Path&gt;" class="s6" d="m675.3 159.5c0 4.9 4.1 8.9 9 8.9 4.9 0 8.9-4 8.9-8.9 0-4.9-4-9-8.9-9-4.9 0-9 4.1-9 9z"/>
				<path id="&lt;Path&gt;" class="s6" d="m628.6 159.5c0 4.9 4 8.9 9 8.9 4.9 0 8.9-4 8.9-8.9 0-4.9-4-9-8.9-9-5 0-9 4.1-9 9z"/>
				<path id="&lt;Path&gt;" class="s6" d="m581.9 159.5c0 4.9 4 8.9 9 8.9 4.9 0 8.9-4 8.9-8.9 0-4.9-4-9-8.9-9-5 0-9 4.1-9 9z"/>
				<path id="&lt;Path&gt;" class="s6" d="m768.8 547.3c0 5 4 9 8.9 9 4.9 0 9-4 9-9 0-4.9-4.1-8.9-9-8.9-4.9 0-8.9 4-8.9 8.9z"/>
				<path id="&lt;Path&gt;" class="s6" d="m722.1 547.3c0 5 4 9 8.9 9 4.9 0 8.9-4 8.9-9 0-4.9-4-8.9-8.9-8.9-4.9 0-8.9 4-8.9 8.9z"/>
				<path id="&lt;Path&gt;" class="s6" d="m675.3 547.3c0 5 4.1 9 9 9 4.9 0 8.9-4 8.9-9 0-4.9-4-8.9-8.9-8.9-4.9 0-9 4-9 8.9z"/>
				<path id="&lt;Path&gt;" class="s6" d="m628.6 547.3c0 5 4 9 9 9 4.9 0 8.9-4 8.9-9 0-4.9-4-8.9-8.9-8.9-5 0-9 4-9 8.9z"/>
				<path id="&lt;Path&gt;" class="s6" d="m581.9 547.3c0 5 4 9 9 9 4.9 0 8.9-4 8.9-9 0-4.9-4-8.9-8.9-8.9-5 0-9 4-9 8.9z"/>
				<path id="&lt;Path&gt;" class="s6" d="m815.5 208c0 4.9 4 8.9 8.9 8.9 5 0 9-4 9-8.9 0-5-4-9-9-9-4.9 0-8.9 4-8.9 9z"/>
				<path id="&lt;Path&gt;" class="s6" d="m815.5 256.5c0 4.9 4 8.9 8.9 8.9 5 0 9-4 9-8.9 0-5-4-9-9-9-4.9 0-8.9 4-8.9 9z"/>
				<path id="&lt;Path&gt;" class="s6" d="m815.5 304.9c0 5 4 9 8.9 9 5 0 9-4 9-9 0-4.9-4-8.9-9-8.9-4.9 0-8.9 4-8.9 8.9z"/>
				<path id="&lt;Path&gt;" class="s6" d="m815.5 353.4c0 4.9 4 9 8.9 9 5 0 9-4.1 9-9 0-4.9-4-8.9-9-8.9-4.9 0-8.9 4-8.9 8.9z"/>
				<path id="&lt;Path&gt;" class="s6" d="m815.5 401.9c0 4.9 4 8.9 8.9 8.9 5 0 9-4 9-8.9 0-5-4-9-9-9-4.9 0-8.9 4-8.9 9z"/>
				<path id="&lt;Path&gt;" class="s6" d="m815.5 450.4c0 4.9 4 8.9 8.9 8.9 5 0 9-4 9-8.9 0-5-4-9-9-9-4.9 0-8.9 4-8.9 9z"/>
				<path id="&lt;Path&gt;" class="s6" d="m815.5 498.8c0 5 4 9 8.9 9 5 0 9-4 9-9 0-4.9-4-8.9-9-8.9-4.9 0-8.9 4-8.9 8.9z"/>
				<path id="&lt;Path&gt;" class="s6" d="m815.5 547.3c0 5 4 9 8.9 9 5 0 9-4 9-9 0-4.9-4-8.9-9-8.9-4.9 0-8.9 4-8.9 8.9z"/>
				<path id="&lt;Path&gt;" class="s6" d="m530.6 159.5c0 4.9 4 8.9 9 8.9 4.9 0 8.9-4 8.9-8.9 0-4.9-4-9-8.9-9-5 0-9 4.1-9 9z"/>
				<path id="&lt;Path&gt;" class="s6" d="m530.6 208c0 4.9 4 8.9 9 8.9 4.9 0 8.9-4 8.9-8.9 0-5-4-9-8.9-9-5 0-9 4-9 9z"/>
				<path id="&lt;Path&gt;" class="s6" d="m530.6 256.5c0 4.9 4 8.9 9 8.9 4.9 0 8.9-4 8.9-8.9 0-5-4-9-8.9-9-5 0-9 4-9 9z"/>
				<path id="&lt;Path&gt;" class="s6" d="m530.6 304.9c0 5 4 9 9 9 4.9 0 8.9-4 8.9-9 0-4.9-4-8.9-8.9-8.9-5 0-9 4-9 8.9z"/>
				<path id="&lt;Path&gt;" class="s6" d="m530.6 353.4c0 4.9 4 9 9 9 4.9 0 8.9-4.1 8.9-9 0-4.9-4-8.9-8.9-8.9-5 0-9 4-9 8.9z"/>
				<path id="&lt;Path&gt;" class="s6" d="m530.6 401.9c0 4.9 4 8.9 9 8.9 4.9 0 8.9-4 8.9-8.9 0-5-4-9-8.9-9-5 0-9 4-9 9z"/>
				<path id="&lt;Path&gt;" class="s6" d="m530.6 450.4c0 4.9 4 8.9 9 8.9 4.9 0 8.9-4 8.9-8.9 0-5-4-9-8.9-9-5 0-9 4-9 9z"/>
				<path id="&lt;Path&gt;" class="s6" d="m530.6 498.8c0 5 4 9 9 9 4.9 0 8.9-4 8.9-9 0-4.9-4-8.9-8.9-8.9-5 0-9 4-9 8.9z"/>
				<path id="&lt;Path&gt;" class="s6" d="m530.6 547.3c0 5 4 9 9 9 4.9 0 8.9-4 8.9-9 0-4.9-4-8.9-8.9-8.9-5 0-9 4-9 8.9z"/>
			</g>
			<g id="&lt;Group&gt;" style="opacity: .2">
				<path id="&lt;Path&gt;" class="s0" d="m563.1 182.3v30.4l237.8 237.8v-85.8l-182.4-182.4z"/>
				<path id="&lt;Path&gt;" class="s0" d="m563.1 470.9v53.6h53.7z"/>
				<path id="&lt;Path&gt;" class="s0" d="m563.1 234.3v42.9l237.8 237.8v-42.9z"/>
				<path id="&lt;Path&gt;" class="s0" d="m715.1 182.3l85.8 85.8v-12.2l-73.6-73.6z"/>
			</g>
		</g>
	</g>
	<g id="Pole">
		<g id="&lt;Group&gt;">
			<path id="&lt;Path&gt;" class="s6" d="m272.3 418.8h-90.6v-266h90.6z"/>
			<g id="&lt;Group&gt;">
				<path id="&lt;Path&gt;" class="s6" d="m272.4 152.8v266h-90.7v-266z"/>
				<path id="&lt;Compound Path&gt;" fill-rule="evenodd" class="s1" d="m272.4 152.8c0.3 66.7 0.7 200.1 0.8 266.8 0 0-0.8 0-0.8 0l-90.7 0.2h-1c-0.2-0.5 0.6-266.3 0.5-267 0 0 0-0.5 0-0.5h0.5zm0 0l-90.6 0.5c1.2 3 0.6 246.9 0.9 264.5l88.9 0.1 0.3-131.9zm-90.6 0.5q-0.1-0.1-0.1 0zm1 265.5q0 0 0 0 0 0 0 0zm0 0q-0.1-0.1-0.1-1h-0.9c0 0 0.9 0.9 1 1zm88.8-0.9v0.9l0.8-0.9z"/>
			</g>
			<path id="&lt;Path&gt;" class="s7" d="m278.3 138.3h-102.5v14.5h102.5z"/>
			<path id="&lt;Path&gt;" class="s8" d="m288.4 123.8h-122.8v14.5h122.8z"/>
			<path id="&lt;Path&gt;" class="s9" d="m227 80.5c-25 0-45.3 18.7-45.3 41.7v1.6h90.6v-1.6c0-23-20.2-41.7-45.3-41.7z"/>
			<path id="&lt;Path&gt;" class="s7" d="m175.8 433.3h102.5v-14.5h-102.5z"/>
			<path id="&lt;Path&gt;" class="s8" d="m165.6 447.8h122.8v-14.5h-122.8z"/>
			<path id="&lt;Path&gt;" class="s9" d="m227 491.1c25.1 0 45.3-18.7 45.3-41.7v-1.6h-90.6v1.6c0 23 20.3 41.7 45.3 41.7z"/>
			<g id="&lt;Group&gt;">
				<path id="&lt;Path&gt;" class="s10" d="m272.4 152.8v28.8l-90.7 70v-51.5l61.2-47.3z"/>
				<path id="&lt;Path&gt;" class="s8" d="m272.3 276.6l-90.6 70v-51.6l90.6-70z"/>
				<path id="&lt;Path&gt;" class="s10" d="m272.4 319.9v51.6l-61.2 47.3h-29.5v-28.9z"/>
			</g>
			<path id="&lt;Path&gt;" class="s11" d="m210 418.8h-15.4v-266h15.4z"/>
		</g>
	</g>
	<g id="Character 2">
		<g id="&lt;Group&gt;">
			<g id="&lt;Group&gt;">
				<g id="&lt;Group&gt;">
					<g id="&lt;Group&gt;">
						<g id="&lt;Group&gt;">
							<path id="&lt;Path&gt;" class="s9" d="m571.7 933.6h-188.9l-0.9-51.1c-6-23.3-8.8-74.3-6.4-91.7 9-65.2 33-118.3 33-118.3h4.7l146.6-1.5c0 0 6.5 130.1 11.9 262.6z"/>
							<g id="&lt;Group&gt;">
								<path id="&lt;Path&gt;" class="s8" d="m553.5 933.6h-3.7q-0.3-15.5-0.6-31-0.4-15.9-0.8-31.7 0-0.5 0-1c-1.4-50.3-3.2-100.5-5.3-150.8 0-0.7 1.1-0.6 1.1 0 4.5 71.5 7.5 143 9.3 214.5z"/>
							</g>
						</g>
					</g>
				</g>
				<g id="&lt;Group&gt;">
					<g id="&lt;Group&gt;">
						<g id="&lt;Group&gt;">
							<path id="&lt;Path&gt;" class="s9" d="m723.5 933.6h-199.1c-12.9-33.6-22.7-59.2-25.5-66.3q-0.2-0.6-0.4-0.9-0.4-1.1-0.4-1.1c-4.1-2.3-9-4.7-13.8-7.1-10.7-5.3-20.9-9.9-20.9-9.9-47.3-73.5-50.2-175.8-50.2-175.8l146.6-1.5 79.9-0.7c15.5 58 72.9 234.1 83.8 263.3z"/>
							<g id="&lt;Group&gt;">
								<path id="&lt;Path&gt;" class="s8" d="m655.4 933.6h-5.2c-11.5-26-22.9-52.2-33.1-78.8-20-51.8-36.1-107-34.7-163.1 0-0.6 0.9-0.6 0.9 0 0.4 6.9 1 13.8 1.6 20.7 5 56.5 24.1 111.4 45.7 163.5 8 19.4 16.3 38.6 24.8 57.7z"/>
								<g id="&lt;Group&gt;">
									<path id="&lt;Path&gt;" class="s8" d="m550.2 869.9c-10.5-0.1-20.9-0.7-31.3-2.5-10.4-1.9-20.1-5.2-30.3-8.1-9.6-2.8-19.8-3.1-29.7-4.6-10-1.5-20-4-29.1-8.3-0.5-0.3-0.8 0.4-0.4 0.6 9.1 4.5 18.3 8.8 28 11.8 10 3.1 20.4 3.4 30.5 5.8 10.5 2.4 20.5 5.7 31.2 6.8 10.4 1.1 20.9 1 31.2-0.8 0.4-0.1 0.3-0.7-0.1-0.7z"/>
									<path id="&lt;Path&gt;" class="s8" d="m527.3 933.6h-5.9c-3.3-9.2-6.6-18.4-9.7-27.7-4.4-12.8-9.2-25.6-12.9-38.6q-0.2-0.5-0.3-0.9-0.2-1-0.5-2c-0.1-0.4 0.5-0.5 0.7-0.2q0.9 1.7 1.7 3.5c6.5 13.9 11.7 28.2 17.5 42.3q4.8 11.8 9.4 23.6z"/>
								</g>
							</g>
						</g>
					</g>
				</g>
			</g>
			<g id="&lt;Group&gt;">
				<g id="&lt;Group&gt;">
					<g id="&lt;Group&gt;">
						<path id="&lt;Path&gt;" class="s12" d="m494.2 379.6c-56.5 34.8-153.2 134.4-148 162.8 9.5 52.5 138.3 102.6 163.9 114.4 10.9 5.1 39.4-92 27.9-97.6-10-5-81.8-24.8-82.5-34.3-0.3-4 33.1-53.4 60.1-111.9 20.7-44.8-4.7-43.6-21.4-33.4z"/>
						<g id="&lt;Group&gt;">
							<g id="&lt;Group&gt;">
								<g id="&lt;Group&gt;">
									<g id="&lt;Group&gt;">
										<path id="&lt;Path&gt;" class="s12" d="m516.2 551.5c0 0 10.8 4.8 39.4 8.4 22.4 2.8 72.9 24.9 90 85.9 6.6 23.3-7 38.1-18.1 15.1-7.8-16.3-11.8-28.2-15.9-32.8 0 0-6.1 26.9-20.8 33.1-6.6 2.7-24.8 9.8-39.8 13.3 0 0-1.6-3.1-3.1-7.2 0 0-18.9 7.1-34.7-9.1l-22.7-9.7z"/>
									</g>
								</g>
								<g id="&lt;Group&gt;">
									<path id="&lt;Path&gt;" class="s12" d="m574 568.3c8.1 8.6 24.9 27.2 33.4 47.1 9.4 22.2 21.6 67.4 5.1 74.2-12 5-18.2-11.9-18.2-11.9 0 0 1.1 19.8-10.8 21.9-10.8 1.9-14.8-11.4-14.8-11.4 0 0-1.4 12.1-12.1 11.9-13-0.2-7.9-25.5-20.9-37-2.9-2.6 38.3-94.8 38.3-94.8z"/>
									<g id="&lt;Group&gt;">
										<path id="&lt;Path&gt;" class="s9" d="m582.3 621.5c6.3 9.3 15.1 34.2 12.3 55.8 0 0.5-0.4 0.7-0.5 0.3-2-24.5-8.6-46.7-12-56-0.1-0.2 0.1-0.2 0.2-0.1z"/>
									</g>
									<g id="&lt;Group&gt;">
										<path id="&lt;Path&gt;" class="s9" d="m560.2 631.6c4.6 8.7 12.5 34.7 9 56.5-0.1 0.5-0.5 0.7-0.5 0.2-1.1-25.6-5.9-47.1-8.7-56.6 0-0.1 0.1-0.2 0.2-0.1z"/>
									</g>
								</g>
							</g>
						</g>
					</g>
					<g id="&lt;Group&gt;">
						<g id="&lt;Group&gt;">
							<path id="&lt;Path&gt;" class="s4" d="m516.2 551.5l-29.7 105.5c0 0-144.3-67.5-142.4-119.4 1.3-33.9 95.4-124.3 138.4-153.1 43-28.7 54.5-17.4 35.3 31.2-19.2 48.6-59.2 108.7-59 109.9 0.2 1.2 57.4 25.9 57.4 25.9z"/>
						</g>
						<g id="&lt;Group&gt;">
							<path id="&lt;Path&gt;" class="s7" d="m508.6 548.2l-40.3 112.9c0 0-126.1-71.6-124.2-123.5 1.3-33.9 95.4-124.3 138.4-153.1 43-28.7 54.5-17.4 35.3 31.2-19.2 48.6-59.2 108.7-59 109.9 0.2 1.2 49.8 22.6 49.8 22.6z"/>
							<path id="&lt;Path&gt;" class="s9" d="m517.8 415.7c-19.2 48.5-59 108.4-59 109.9 0.2 1.2 49.8 22.6 49.8 22.6l-40.3 112.9c0 0-59.5-33.8-96.1-71.7l142.2-220.3c15.4-2.1 16.4 13.7 3.4 46.6z"/>
						</g>
					</g>
				</g>
				<g id="&lt;Group&gt;">
					<g id="&lt;Group&gt;">
						<g id="&lt;Group&gt;">
							<path id="&lt;Path&gt;" class="s12" d="m566.6 421.5c-15.2 2-41.4-25.5-49.6-44.9-0.5-1.4 2.8-14.4 6-30.5 2-9.8 3.9-20.7 4.9-30.8l61.8 21.9c0 0-8.5 20.5-10.2 38.1q-0.2 2.2 0 4.2c0 0.2 0.1 0.5 0.1 0.7 0.4 8 1.7 39.4-13 41.3z"/>
						</g>
						<path id="&lt;Path&gt;" class="s9" d="m579.5 379.5c0 0.2 0.1 0.5 0.1 0.7-2.1 0.1-4.2 0-6.6-0.3-37.1-5.3-42.5-48.1-43.2-63.9l59.9 21.2c0 0-8.4 20.6-10.2 38.1q-0.1 2.3 0 4.2z"/>
					</g>
					<g id="&lt;Group&gt;">
						<path id="&lt;Path&gt;" class="s9" d="m605.2 222.5c0 0 17 7.7 19.8 25.5 2.7 17.7-1.7 36.2-3.2 37-1.6 0.9-16.6-62.5-16.6-62.5z"/>
						<g id="&lt;Group&gt;">
							<path id="&lt;Path&gt;" class="s12" d="m517.1 241.4c-7.2 22.5 3.7 87.8 19.6 102.6 22.9 21.4 61 23.9 79.3-3.8 17.7-26.8 1.9-111.7-15.8-125.2-26.1-19.8-72.5-6.8-83.1 26.4z"/>
						</g>
						<g id="&lt;Group&gt;">
							<path id="&lt;Path&gt;" class="s9" d="m539 286.3c1.9 6.5 7.6 35.7 22.9 40.7 11.5 3.7 26.8-4.1 26.8-4.1l6.7 0.1c0 0 10.2 5.4 17 0.9 7.2-4.8 11.6-16.8 11.3-24.9 0 0 7.2 30.5-1 45.1-10 17.5-44.4 29.4-70.3 17.8-25.8-11.5-30.3-48.7-30.3-48.7l13.9-20.6z"/>
						</g>
						<g id="&lt;Group&gt;">
							<g id="&lt;Group&gt;">
								<path id="&lt;Path&gt;" class="s9" d="m580.7 282.3c-0.1-0.1-0.3 0.3-0.3 0.5 0.7 4.4 0.7 9.5-3.1 11.5-0.1 0.1-0.1 0.3 0.1 0.2 4.8-1.2 4.7-8.1 3.3-12.2z"/>
								<path id="&lt;Path&gt;" class="s9" d="m576.2 278.2c-7.2 0.3-6 14.7 0.6 14.4 6.6-0.3 5.4-14.7-0.6-14.4z"/>
							</g>
							<g id="&lt;Group&gt;">
								<path id="&lt;Path&gt;" class="s9" d="m604 279.3c0-0.2 0.3 0.2 0.4 0.4 0.2 4.4 1.2 9.5 5.3 10.6 0.2 0.1 0.2 0.3 0 0.3-4.9-0.3-6.2-7-5.7-11.3z"/>
								<path id="&lt;Path&gt;" class="s9" d="m607.6 274.3c7.1-1.1 8.8 13.2 2.2 14.2-6.4 1.1-8.2-13.2-2.2-14.2z"/>
							</g>
							<path id="&lt;Path&gt;" class="s9" d="m569 276.7c2 0 3.9-0.3 5.9-0.5 2.2-0.2 4-0.1 5.9-1.6 1-0.8 1.2-2.7 0.5-3.7-1.6-2.4-4.5-2.9-7.2-2.7-3 0.1-5.2 1-7.4 3-2.1 1.9-0.4 5.4 2.3 5.5z"/>
							<path id="&lt;Path&gt;" class="s9" d="m610.9 267c-2-0.1-3.8-0.6-5.8-1-2.3-0.4-4.1-0.5-5.8-2.1-0.9-0.9-0.9-2.8-0.1-3.8 1.8-2.2 4.7-2.4 7.4-2 2.9 0.4 5.1 1.5 7.1 3.7 1.9 2.1-0.1 5.4-2.8 5.2z"/>
							<path id="&lt;Path&gt;" class="s9" d="m587.8 320.6c1.2 0.9 2.4 2.2 4 2.2 1.6 0 3.3-0.9 4.7-1.6 0.1-0.1 0.3 0 0.2 0.2-1 1.8-3.3 3.1-5.4 3-2-0.1-3.2-1.8-3.9-3.6-0.1-0.2 0.2-0.3 0.4-0.2z"/>
							<g id="&lt;Group&gt;">
								<g id="&lt;Group&gt;">
									<path id="&lt;Path&gt;" class="s9" d="m583.5 309.1c3.1 3.5 7 5 11.1 5.2 1.8 0.1 3.6-0.1 5.4-0.6q0.5-0.1 1-0.2c0.3-0.1 0.6-0.2 1-0.3 0.5-0.2 0.7-0.6 0.7-1.1v-0.1c0-0.1 0-0.3-0.1-0.4q0 0 0-0.1l-0.1-0.3c-0.4-3.5-1.5-8.6-1.5-8.6 1.3 0.5 8.1 2.4 7.7 0.6-3-14.6-6.4-30.8-12.6-44.6-0.1-0.5-0.9-0.3-0.7 0.2 2.3 14.1 7.2 27.7 9.8 41.9-2.1-0.5-5.6-1.4-7.4-1.1-0.5 0.2 2.3 9.8 2.4 11.4q0 0 0 0.2c-5.6 1.5-10.2 0.5-16.3-2.6-0.4-0.2-0.7 0.2-0.4 0.5z"/>
								</g>
							</g>
							<path id="&lt;Path&gt;" class="s9" d="m600.3 301.5c0 0-4.8-3.1-9.5-0.5-3.4 1.8-6.6 8.5-10.9 8.4-2.2-0.1-3.3-2.3-3.3-2.3 0 0 1 5.4 6 6.7 9.8 2.5 17.8-7.9 17.8-7.9 0 0 2.7 7.7 10.4 7.7 5.7 0 7.2-5.1 7.2-5.1 0 0-1.9 2.5-3.8 1.4-1.3-0.7-4.7-8.2-8.6-8.4-3.9-0.2-5.3 0-5.3 0z"/>
						</g>
						<g id="&lt;Group&gt;">
							<path id="&lt;Path&gt;" class="s9" d="m529.5 302.8c7.5 0.6 11.1-22.5 11.7-31.2 0.4-7.6-2.1-31.1-2.1-32.7 0-1.6 35.3 13.7 52 4.6 16.8-9.1 25.3-27.7 23.9-35.2-1.3-7.6-27.6-21.8-47-18.7-19.4 3.2-40.2 33.2-40.2 33.2 0 0 6.6-12.5 6.1-13.3-0.5-0.8-11.9 6.8-12.2 16.2 0 0 0-11.6-1-11.7-0.9 0-8.5 11.6-4.8 18.4 0 0-9.1 12-7.9 22.8 1.3 10.8 12.6 46.8 21.5 47.6z"/>
							<path id="&lt;Path&gt;" class="s9" d="m603 237c-4.9 3.7-9.7 7.6-15.6 9.7-6.3 2.3-13.4 2.1-19.9 1-6.7-1-13.1-3.2-19.1-6.3-5.2-2.8-10.1-6.4-15.6-8.6-1.4-0.6-2.4 1.4-1.4 2.4 9.5 9.3 24.3 15.6 37.5 16.9 13.9 1.3 25.5-4.2 34.2-14.9 0.1-0.1 0-0.2-0.1-0.2z"/>
						</g>
						<g id="&lt;Group&gt;">
							<path id="&lt;Path&gt;" class="s12" d="m539.2 294.7c0 0-14.8-21-24.4-15.7-9.5 5.3 1.8 35.8 13 40 11.3 4.1 15.3-6.3 15.3-6.3z"/>
							<path id="&lt;Path&gt;" class="s9" d="m518.3 287.7c-0.2 0-0.2 0.2-0.1 0.3 7.9 3.1 12.1 10.4 15 18-2.3-2.9-5.5-4.5-9.4-1.7-0.2 0.1 0 0.5 0.2 0.4 3.2-0.7 5.6-0.1 7.8 2.4 1.5 1.8 2.6 4.2 3.7 6.3 0.4 0.7 1.6 0.3 1.4-0.5q-0.1-0.1-0.1-0.2c0.1-10.1-7.7-24.1-18.5-25z"/>
						</g>
					</g>
				</g>
				<g id="&lt;Group&gt;">
					<g id="&lt;Group&gt;">
						<path id="&lt;Path&gt;" class="s7" d="m660.2 718.5l-276.5 2.6c0.6-3.6 50.9-291 128.8-352.1 13.8-10.8 55.8 2 69.1 16.3 42.2 45.4 74.5 295.1 78.6 333.2z"/>
					</g>
					<path id="&lt;Path&gt;" class="s9" d="m483.3 486.6c2.2-13.5 4.7-26.9 9.1-39.8 0.1-0.3-0.2-0.4-0.3-0.2-4.4 10.8-8.1 22.2-10.7 33.7-2.6 11.9-4.3 23.9-5.8 36-1.6 12.1-3 24.1-5 36.2-2 12.4-4.6 24.7-7.5 36.9-3.3 13.4-6.7 27.2-11.5 40-0.2 0.4 0.3 0.6 0.4 0.2 4.2-11.6 8.7-22.9 12.2-34.8 3.4-11.8 6.2-23.8 8.4-35.8 4.5-24 6.8-48.3 10.7-72.4z"/>
					<g id="&lt;Group&gt;">
						<path id="&lt;Path&gt;" class="s10" d="m581.6 385.3c0 0 42.8 96.8 55 281.3 0 0-167 12.4-171.1 12.4-4.5 0-73-9.5-73.1-8.7-0.4 2.1-6.8 22.8-5.2 24.5 0.7 0.7 20.4 1.3 75.6 2.5 70.5 1.6 180.2 3.7 180.2 3.7l63.3 232.2h29c0 0-105.5-464-141.9-529.5-9.7-17.7-11.8-18.4-11.8-18.4z"/>
						<g id="&lt;Group&gt;">
							<path id="&lt;Path&gt;" class="s4" d="m462.5 684c0 0-44.3 19.5-46 35.1-1.8 15.5 22.8 38.5 31.5 35.5 8.7-3 25.6-64.5 25.6-64.5z"/>
							<path id="&lt;Path&gt;" class="s13" d="m465.5 685.7c0 0-35.4 25.1-34.1 37.6 1.3 12.6 20.5-11.6 34.1-37.6z"/>
						</g>
						<g id="&lt;Group&gt;">
							<path id="&lt;Path&gt;" class="s4" d="m459.9 694.2c0 0-4 48.3 8.9 57.2 12.8 9 44.7-1.6 46.2-10.7 1.5-9.1-44.4-53.2-44.4-53.2z"/>
							<path id="&lt;Path&gt;" class="s13" d="m462.8 692.4c0 0 5.2 43.1 16.9 48 11.6 4.8-0.5-23.6-16.9-48z"/>
						</g>
					</g>
				</g>
				<g id="&lt;Group&gt;">
					<g id="&lt;Group&gt;">
						<g id="&lt;Group&gt;">
							<path id="&lt;Path&gt;" class="s1" d="m833.4 463.3c0 0-14.1 1.7-21.7 13.3-6.1 9.3-2.5 24.9-5.6 25.4-3 0.5-11.8-19.2-3.4-32.8 7.3-11.9 23-15.8 23-15.8l33.9-60.9-12.3-7.6 55.1-103.3 19.2 9.4c0 0 6.2 0.6 6.4 4.9 0.3 4.2-19.6 41.4-37.7 71.6-18.1 30.2-54.9 93.7-56.9 95.8z"/>
							<path id="&lt;Path&gt;" class="s2" d="m868 390.3c16.5-32 34.1-63.8 52.3-94.9-16.6 32-34.1 63.8-52.3 94.9z"/>
						</g>
						<g id="&lt;Group&gt;">
							<path id="&lt;Path&gt;" class="s10" d="m790 272.7c-7.1 20.9-8.6 61.9-3.4 98 6.5 45 18.7 79.1 34.9 89.7 12.3 7.9 22.8-3.6 19.2-20.4-3.3-15.7-12.9-39.7-18.3-71.4-5.2-30.8 2.4-84.1-3.3-99.8-5.6-15.8-23.8-11.7-29.1 3.9z"/>
							<g id="&lt;Group&gt;">
								<path id="&lt;Path&gt;" class="s1" d="m810.9 271.9c0.5 2.8-1.3 5.4-4.1 5.9-2.8 0.5-5.4-1.4-5.9-4.1-0.5-2.8 1.4-5.4 4.1-5.9 2.8-0.5 5.4 1.3 5.9 4.1z"/>
								<path id="&lt;Path&gt;" class="s2" d="m810.9 271.9q0.1 0.5 0.1 1l-9.8 1.7q-0.2-0.4-0.3-0.9-0.1-0.5 0-1l9.7-1.7q0.2 0.4 0.3 0.9z"/>
							</g>
							<g id="&lt;Group&gt;">
								<path id="&lt;Path&gt;" class="s1" d="m830.4 444.5c2.5 1.2 3.6 4.2 2.5 6.8-1.2 2.5-4.2 3.6-6.8 2.4-2.5-1.1-3.6-4.2-2.4-6.7 1.1-2.5 4.2-3.7 6.7-2.5z"/>
								<path id="&lt;Path&gt;" class="s2" d="m830.4 444.5q0.5 0.2 0.8 0.5l-4.1 9.1q-0.5-0.1-1-0.4-0.4-0.2-0.8-0.5l4.2-9q0.4 0.1 0.9 0.3z"/>
							</g>
							<path id="&lt;Path&gt;" class="s14" d="m790 309.2c0.1 46.2 6.5 92.7 23.6 135.8-20.5-40.6-27.5-90.7-23.6-135.8z"/>
							<path id="&lt;Path&gt;" class="s14" d="m793.5 281.8c-0.6 7.1-1.5 14.1-3.1 21-0.4-7.1 0.6-14.3 3.1-21z"/>
						</g>
					</g>
					<g id="&lt;Group&gt;">
						<path id="&lt;Path&gt;" class="s12" d="m557.5 423c4 101 39.1 236.6 72.9 245.4 37.6 9.8 33.3-128.1 28.7-131.8-3.4-2.9-34.2-61.2-65-126.2-30.7-64.8-37.6-12.4-36.6 12.6z"/>
						<g id="&lt;Group&gt;">
							<g id="&lt;Group&gt;">
								<path id="&lt;Path&gt;" class="s7" d="m659.6 536.2c-5.1-9-48.6-96.5-67.4-132.6-18.7-36-35.9-35-36.7 17.2-0.8 52.2 11.5 158.9 43.8 215.6 31 54.5 55 37.4 62.7-11.3 6.2-39.8-2.4-88.9-2.4-88.9z"/>
							</g>
						</g>
					</g>
					<g id="&lt;Group&gt;">
						<g id="&lt;Group&gt;">
							<path id="&lt;Path&gt;" class="s12" d="m630 669.6c28.6 3.7 59.8-22.4 151.9-90.7 12.7-9.5-28.9-121.1-43-111.7-17.8 11.8-84.3 61.6-88.7 65.9-37.1 35.9-39.7 134-20.2 136.5z"/>
							<g id="&lt;Group&gt;">
								<g id="&lt;Group&gt;">
									<g id="&lt;Group&gt;">
										<g id="&lt;Group&gt;">
											<path id="&lt;Path&gt;" class="s12" d="m690.2 522.7c0 0 9.1-10.7 22.7-42.1 10.7-24.6 52.8-75 128.1-74.1 28.8 0.3 41.2 20.7 11.2 25.7-21.2 3.5-36.1 4.1-42.7 7.2 0 0 28.7 15.9 30.8 34.8 0.9 8.5 2.9 31.6 1.9 49.8 0 0-4.1 0.8-9.3 1.2 0 0 1.8 23.9-21.9 36.5l-34.9 21.4z"/>
										</g>
									</g>
									<g id="&lt;Group&gt;">
										<path id="&lt;Path&gt;" class="s12" d="m728.7 462.4c12.5-6.4 39.3-19.4 64.9-22.4 28.4-3.3 84.1-2.1 86.4 18.9 1.6 15.4-19.7 16.8-19.7 16.8 0 0 22.9 5.3 21.4 19.6-1.4 13-18 13.1-18 13.1 0 0 13.4 5.6 9.6 17.8-4.5 14.8-31.7 0.5-49.2 11.5-3.9 2.4-95.4-75.3-95.4-75.3z"/>
										<g id="&lt;Group&gt;">
											<path id="&lt;Path&gt;" class="s9" d="m792.1 470.6c12.8-4 44.1-5.7 67.9 4.6 0.5 0.2 0.6 0.8 0.1 0.7-28.6-5.9-56.2-5.7-67.9-5-0.2 0-0.2-0.2-0.1-0.3z"/>
										</g>
										<g id="&lt;Group&gt;">
											<path id="&lt;Path&gt;" class="s9" d="m796.3 499.2c11.4-2.3 43.8-2.7 67.5 8.6 0.5 0.3 0.6 0.8 0.1 0.7-29.6-7.3-55.8-9-67.5-9-0.2 0-0.2-0.2-0.1-0.3z"/>
										</g>
									</g>
								</g>
							</g>
						</g>
						<g id="&lt;Group&gt;">
							<path id="&lt;Path&gt;" class="s7" d="m698.7 488.2l44.8 134.2c0 0-85.5 54.5-114.3 48.2-19-4.2-19.4-104.4 24.6-141z"/>
							<g id="&lt;Group&gt;">
								<path id="&lt;Path&gt;" class="s9" d="m621.5 591.6c1.3-11.2 7.2-40.6 32.3-62.1 0.2-0.2 0.6 0.2 0.4 0.4-17.2 17.8-30.1 51.2-32.2 61.9-0.1 0.2-0.5 0.1-0.5-0.2z"/>
								<path id="&lt;Path&gt;" class="s9" d="m711.7 631.7c-5.6-14.3-10.4-28.9-15.1-43.4-4.7-14.6-9.5-29.2-13.9-43.9-2.4-8.3-5-16.6-7.1-24.9-0.1-0.2 0.3-0.4 0.4-0.2 5.5 14.3 10.3 28.9 15.2 43.4q7.2 21.8 14 43.8c2.6 8.3 5 16.6 7.2 24.9 0.1 0.4-0.6 0.7-0.7 0.3z"/>
								<path id="&lt;Path&gt;" class="s9" d="m699 487c-5.5 3.1-29.7 22.3-55 52.4-0.2 0.2-2.6 7.4-2.5 7.2 20.4-24.6 52.9-52.8 57.6-57.2q0.2 0.7 0.5 1.4c0.1 0.3 0.6 0.3 0.7-0.1 0.1-0.9 0-1.8 0.1-2.8 0.1-0.8-0.7-1.3-1.4-0.9z"/>
								<g id="&lt;Group&gt;">
									<path id="&lt;Path&gt;" class="s9" d="m740.4 613.1l3.4 9.3v0.1l-0.1 0.1c-25 16.6-51 31.8-79.1 42.5-10.7 3.7-22.2 7.3-33.7 5.6-18.6-4.2-30-25.6-37.9-41.2-12.7-27.3-20.9-56.3-27.3-85.6-6.3-29.3-10.9-59-12.3-88.9 3 29.7 8.3 59.1 15.2 88.2 7.1 28.9 15.2 57.8 28 84.6 7.5 14.7 17.7 35.2 34.9 39.4 10.8 1.7 21.7-1.9 32-5.2 28.1-9.8 54.4-24.5 79.9-39.8 0 0-0.1 0.3-0.1 0.3z"/>
								</g>
								<g id="&lt;Group&gt;">
									<path id="&lt;Path&gt;" class="s9" d="m550.5 458.5c0.3 5.2 1.9 10.3 4.5 14.8-3.2-4.1-4.9-9.6-4.5-14.8z"/>
								</g>
							</g>
						</g>
					</g>
				</g>
			</g>
		</g>
	</g>
	<g id="Character 1">
		<g id="&lt;Group&gt;">
			<g id="&lt;Group&gt;">
				<g id="&lt;Group&gt;">
					<g id="&lt;Group&gt;">
						<path id="&lt;Path&gt;" class="s8" d="m456.7 603q0-0.1 0 0 0 0-0.1 0.3-0.2 0.6-0.6 2-0.1 0.4-0.2 1c0 0 0 0.1-0.1 0.1q-0.1 0.4-0.2 0.9-0.1 0.4-0.2 0.9-0.3 0.9-0.5 2c-0.2 0.5-0.3 1.1-0.5 1.7q-0.3 1.2-0.6 2.5-0.3 0.8-0.5 1.7-0.1 0.6-0.3 1.2c-0.2 0.8-0.4 1.6-0.6 2.5q-0.2 0.7-0.4 1.5-0.2 0.7-0.4 1.5-0.2 0.8-0.4 1.6-0.3 0.9-0.5 1.7-0.7 2.6-1.4 5.5-0.2 0.8-0.5 1.7-0.2 0.9-0.5 1.9-0.1 0.7-0.3 1.3 0 0.2-0.1 0.3-0.8 3.3-1.8 6.8-1 4.2-2.3 8.9c-0.7 2.7-1.4 5.6-2.2 8.6q-0.7 2.7-1.4 5.5-0.4 1.4-0.8 2.9 0 0.2-0.1 0.4-1.4 5.3-2.8 10.9-0.8 3-1.6 6-0.3 1.3-0.7 2.5-0.1 0.7-0.3 1.4-0.2 0.5-0.3 1.1-1.6 6.1-3.2 12.5-1.2 4.6-2.5 9.3c-2.4 9.3-4.9 18.9-7.4 28.8-13.6 52.4-29.2 112.7-43.3 167.7-0.5 1.9-1 3.8-1.5 5.6q-0.1 0.3-0.1 0.6-0.2 0.5-0.3 1-0.4 1.5-0.7 2.9-0.3 1.2-0.6 2.4-0.4 1.3-0.7 2.7-0.6 2.1-1.1 4.2-0.5 1.9-1 3.7h-175.2c17.9-62.3 39.3-133.4 57.7-193.6 23.6-77.3 42.3-136.6 42.3-136.6z"/>
					</g>
					<g id="&lt;Group&gt;">
						<path id="&lt;Path&gt;" class="s9" d="m344.1 933.2c26.9-110.3 56.7-221.3 88.8-330.2-26.9 110.3-56.7 221.2-88.8 330.2z"/>
					</g>
					<path id="&lt;Path&gt;" class="s13" d="m456.7 603q0 0-0.1 0.3-0.2 0.6-0.6 2-0.1 0.4-0.2 1-0.1 0.4-0.3 1-0.1 0.4-0.2 0.9-0.7 2.5-1.6 6.2-0.3 0.8-0.5 1.7-0.1 0.6-0.3 1.2-0.3 1.2-0.6 2.5-0.2 0.7-0.4 1.5c-0.2 0.5-0.3 1-0.4 1.5q-0.2 0.8-0.4 1.6-0.3 0.9-0.5 1.7-0.7 2.6-1.4 5.5-0.5 1.8-1 3.6-0.2 0.8-0.4 1.6-0.8 3.3-1.8 6.8c-0.7 2.8-1.5 5.8-2.3 8.9q-1 4.1-2.2 8.6-0.7 2.7-1.4 5.5-0.4 1.4-0.8 2.9 0 0.2-0.1 0.4-1.4 5.3-2.8 10.9-0.8 3-1.6 6-0.3 1.3-0.7 2.5-0.3 1.3-0.6 2.5-1.6 6.1-3.2 12.5-1.3 4.6-2.5 9.3c-15.6 60.1-35.2 135.6-52.3 202.7q-0.2 0.5-0.3 1-0.4 1.5-0.7 2.9-1.2 4.7-2.4 9.3-0.5 1.9-1 3.7h-6.7c-2.2-15.3-4.8-30.9-7.7-46.8-7.8-43-17.5-87.3-26.8-129.6q-0.4-1.7-0.7-3.3-0.2-1-0.4-2c-7.7-34.7-14.9-67.9-20.6-97.7q0-0.1 0-0.3c-1.6-7.9-3-15.5-4.2-22.9-0.2-1.1-0.4-2.3-0.6-3.4-1.4-8.4-2.6-16.5-3.6-24.1q0-0.1 0-0.1z"/>
				</g>
				<g id="&lt;Group&gt;">
					<g id="&lt;Group&gt;">
						<path id="&lt;Path&gt;" class="s8" d="m545.2 933.2h-178.6l-5.7-62.6-9.5-104.9-0.2-1.9c-6.9-3.2-16.8-7.9-22-10.3-2.1-1-3.4-1.6-3.4-1.6 0 0-0.1-0.6-0.3-1.6-1.8-9.7-11.3-60.1-17.3-96.5q0-0.1 0-0.3c-1.5-8.9-2.9-17.2-4.1-24.5q-0.2-1.5-0.5-3c-1.9-11.7-3.3-20-3.7-22.4 0-0.3-0.1-0.4-0.1-0.5q0-0.1 0-0.1 0-0.1 0 0h207.9c0 0 20.3 87.9 22 117.9 0.6 9.6-2.6 38.3-2.6 38.3z"/>
						<g id="&lt;Group&gt;">
							<g id="&lt;Group&gt;">
								<g id="&lt;Group&gt;">
									<path id="&lt;Path&gt;" class="s9" d="m311.7 745.4c23.2 7.5 45.6 18.3 67.1 29.7 0.8 0.4 0.3 1.7-0.6 1.4-22.6-9.2-45.6-18-67.7-28.4-1.7-0.8-0.6-3.3 1.2-2.7z"/>
								</g>
							</g>
							<path id="&lt;Path&gt;" class="s9" d="m487.2 702.3c-2-0.9-37.9-0.8-53.8-16.8-14.6-14.7-19.1-56.1-19.5-56.2-0.2 0-0.4 0-0.6 0.3-0.5 0.8-2.1 33.1 14.9 57 12 16.8 54.4 17.8 59 17.1 0.8-0.2 0.6-1.2 0-1.4z"/>
							<path id="&lt;Path&gt;" class="s9" d="m275.7 684c1.7-1.4 9.8-2.6 17.7-18 2.7-5.3 5-11.8 6.7-19.2 0.9-4 3.8-23.3 4.1-23.4q0.1 0 0.2 0.3c0.3 1.3-1.6 19-2.4 23.5-1.5 8.5-3.5 16.3-6.8 22.1-7.6 13.4-17.8 16.9-19.6 16-0.3-0.2-0.2-1.1 0.1-1.3z"/>
							<g id="&lt;Group&gt;">
								<path id="&lt;Path&gt;" class="s9" d="m322.6 625.3c0.1-0.5 1.1-0.6 1 0.1-2 20-2.4 37.8-2.4 56.7-0.1 8.8 2.4 57.6 17.8 55.5 2.6-0.3 4.1-2.7 4.9-6.5 0.9-4.5-0.3-10.3-0.6-14.9-0.7-10.3-1.1-20.5-1-30.8 0.1-19.1 1.8-38.1 5.9-56.8 0.2-0.7 1-0.5 1 0.1-2.5 26.3-4.3 52.6-2.8 79 0.7 12.7 5.2 32.2-8 32.9-13.6 0.7-19.2-31.7-20-40.5-2.3-24.5 0-50.5 4.2-74.8z"/>
								<path id="&lt;Path&gt;" class="s9" d="m338.5 738.9c1.1 3.3 1.9 6.8 2.5 10.3 0.5 2.7 1.2 5.6 0.6 8.3-0.1 0.5-0.8 0.5-1.1 0.1-1.5-2.4-2-5.5-2.7-8.3-0.9-3.2-1.8-6.4-2.6-9.6-0.5-2.1 2.7-2.9 3.3-0.8z"/>
							</g>
						</g>
						<g id="&lt;Group&gt;">
							<path id="&lt;Path&gt;" class="s9" d="m492.4 610.6c6.8 36.1 13.9 72.8 18.4 109.3 0.1 14.5 0 29 0.3 43.5 5.2 53.9 10.5 115.6 13.9 170.2-4.9-39.1-10-88-13.7-127.5-1.1-10.6-3.1-31.9-4-42.5-0.1-12.9-0.2-25.8 0.1-38.8 0.4-5.5-1-13.3-1.6-18.8-1.6-12.7-11.4-81.3-13.4-95.4z"/>
						</g>
					</g>
				</g>
			</g>
			<g id="&lt;Group&gt;">
				<g id="&lt;Group&gt;">
					<g id="&lt;Group&gt;">
						<path id="&lt;Path&gt;" class="s15" d="m384.1 413.1c-45.1 47.5-123.4 129-159.4 124.8-26-2.9-103.1-81-122.8-110-19-28 69.9-71.4 82.1-55.7 22 28.2 49.3 57.9 52 60.6 2.1 2.2 50.5-19.4 119.6-50.4 43.5-19.6 47.7 10.4 28.5 30.7z"/>
					</g>
					<g id="&lt;Group&gt;">
						<path id="&lt;Path&gt;" class="s10" d="m265.2 420.3l30.6 92.6c0 0 50.4-49.1 82.2-88.5 31.7-39.4 36.9-71.3-11.4-51.4-48.4 19.9-101.4 47.3-101.4 47.3z"/>
						<path id="&lt;Path&gt;" class="s1" d="m403.3 364.3l-2.5-1.1 3.2 0.5z"/>
						<path id="&lt;Path&gt;" class="s13" d="m378 424.4c-31.8 39.4-82.1 88.5-82.1 88.5l-20.4-61.4 121.8-83.2c11.6 5.9 2.3 29.2-19.3 56.1z"/>
						<path id="&lt;Path&gt;" class="s9" d="m284.9 417c2.7 6.5 4.7 13.3 6.9 20q3.2 9.8 6.2 19.6c4.1 13.4 8.3 26.6 11.3 40.2 0.1 0.4-0.4 0.6-0.5 0.2-5.1-13-9.1-26.3-13.1-39.6q-3-9.9-5.9-19.8c-2-6.8-4.1-13.5-5.5-20.4 0-0.4 0.4-0.5 0.6-0.2z"/>
					</g>
					<g id="&lt;Group&gt;">
						<path id="&lt;Path&gt;" class="s15" d="m85.1 400.5c7.1 18.2 36.2 49.6 46.1 54.5 9.9 4.9 65-42.7 64.4-54-0.6-11.3-29.2-70.6-46.4-80.5-17.3-10-71.4 61.2-64.1 80z"/>
						<g id="&lt;Group&gt;">
							<path id="&lt;Path&gt;" class="s15" d="m192.5 390c0 0-0.1-25.3 7.3-46.4 6.2-17.7 17.4-43.4 7.9-47.1-19.3-7.5-47.2 56.4-47.2 56.4 0 0-7.7 30.2 10.7 39.4 11.6 5.8 21.3-2.3 21.3-2.3z"/>
						</g>
						<path id="&lt;Path&gt;" class="s15" d="m172.6 341.1c-6.5 8-12.8 2.2-12.8 2.2l-47-32.9c0 0-28.8-34.3-20.7-42.9 13.9-14.8 74.1 56.3 80.5 61.7 3.4 2.8 2.8 8.4 0 11.9z"/>
						<g id="&lt;Group&gt;">
							<g id="&lt;Group&gt;">
								<path id="&lt;Compound Path&gt;" fill-rule="evenodd" class="s8" d="m120.8 374.2c-2.6-16.2 10.9-23.7 12.4-25.1 1.5-1.5 1.6-2.1 1.4-3.3-2-17 2.1-29.1 2.1-29.1l-19.2-121.4 2.2-0.3c22.5 43.6 32.2 110.6 32.2 110.6-4 3.6-9.7 14.1-10.4 22.3-0.7 8.3 0.4 19.8 2.2 21.7 1.5 1.6 10.2 6.2 14.4 16.3 0.3 0.7 2 0.1 2.6 0.8 0.5 0.7 1.3 6.5 0.8 7.7-0.3 0.6-1.6 0.2-2.4 1.4-1.2 7.6-6 11.6-11 14.5-8.8 5.1-24.7-0.2-27.3-16.1zm9.4 7.2c4.2 4.4 13 7.6 19.9 0.5 5.1-5.3 4.9-13.2-0.5-19.8-5.5-6.6-14.1-7.1-19.9-1.3-5.9 5.7-4 15.7 0.5 20.6z"/>
								<path id="&lt;Path&gt;" class="s9" d="m145.3 315.4l-10.9-13.1-6.7-42.6 20.1 23.2c2.8 13.7 4.1 22.7 4.1 22.7-2 1.8-4.6 5.6-6.6 9.8z"/>
								<path id="&lt;Path&gt;" class="s7" d="m119.9 197.6c2 4.2 3.7 8.4 5.5 12.6q2.5 6.5 4.8 12.9 4.6 13 8.3 26.3c2.4 8.9 4.6 17.9 6.3 26.9 0.4 2.2 0.9 4.5 1.3 6.7l1.1 6.8c0.4 2.3 0.7 4.6 1 6.9l0.9 6.8c-1.5-9.1-3-18.1-5-27.1-1.9-9-4.1-17.9-6.5-26.7-2.4-8.9-5.1-17.6-8.1-26.3-2.9-8.7-6.1-17.3-9.6-25.8z"/>
							</g>
							<g id="&lt;Group&gt;">
								<path id="&lt;Compound Path&gt;" fill-rule="evenodd" class="s7" d="m143.5 310.3c0 0-42-53.1-58.2-99.4l1.8-1.5 74.9 97.5c0 0 11.6 5.3 22.5 18.5 0.8 0.9 1.3 1.3 3.4 1.2 2.1-0.1 16.5-4.1 26.7 8.3 10.3 12.4 2.4 23.4 6.2 28 3.8 4.6 7.5 6.8 14.5 6.5 7-0.2 6.4 5.7 0.5 6.2-6 0.5-12.9-2.1-16.3-4.9-3.4-2.7-4.3-5.8-11-3.9-6.7 1.9-15.4 1.4-22.6-6-8.9-9.3-4.7-23.5-4.8-26.2-0.2-2.6-7.8-11.3-14.2-16.5-6.5-5.2-18.1-8.2-23.4-7.8zm47 46.9c4.2 4.4 13 7.7 19.9 0.5 5.1-5.3 4.9-13.2-0.5-19.8-5.5-6.6-14.1-7.1-19.9-1.3-5.9 5.7-4 15.8 0.5 20.6z"/>
								<g id="&lt;Group&gt;">
									<path id="&lt;Path&gt;" class="s1" d="m143.5 294.4c0.8-1.7 0.1-3.8-1.7-4.6-1.7-0.8-3.8-0.1-4.6 1.6-0.8 1.8-0.1 3.9 1.7 4.7 1.7 0.8 3.8 0.1 4.6-1.7z"/>
									<path id="&lt;Path&gt;" class="s0" d="m142.6 294c0.6-1.2 0-2.7-1.2-3.3-1.2-0.6-2.7 0-3.3 1.2-0.6 1.2 0 2.7 1.2 3.3 1.2 0.5 2.7 0 3.3-1.2z"/>
								</g>
								<path id="&lt;Path&gt;" class="s9" d="m87 211.4q2.9 6.4 6 12.6 3.1 6.4 6.3 12.6c4.3 8.3 8.8 16.5 13.5 24.6 2.3 4 4.8 8 7.2 12 2.5 4 4.9 8 7.5 11.8l3.9 5.9 4 5.8 1.9 2.9 2.1 2.8 4.1 5.7c-5.8-7.3-11.4-14.8-16.6-22.7l-2-2.9-1.9-2.9-3.7-5.9c-2.5-4-5-8-7.3-12.1-4.7-8.1-9.2-16.3-13.3-24.7-4.2-8.4-8.2-16.9-11.7-25.5z"/>
								<path id="&lt;Path&gt;" class="s9" d="m209.5 365.2c-3.7 1.5-7.8 1.9-11.7 1.3-4-0.6-7.7-2.6-10.6-5.4-2.9-2.8-4.8-6.6-5.5-10.5-0.8-4-0.6-8.1 0-12 0.1-1 0.3-2 0.4-2.9 0-0.8-0.4-1.7-0.8-2.6-0.8-1.7-1.9-3.3-3.2-4.8-2.4-3.1-5.2-5.9-8.1-8.5-2.9-2.7-6.3-4.8-9.8-6.5-3.5-1.8-7.2-3.2-11.2-3.6 2 0.1 3.9 0.5 5.8 1q2.9 0.9 5.6 2.1c3.6 1.7 7.1 3.8 10 6.4 3 2.6 5.9 5.4 8.4 8.5 1.3 1.6 2.5 3.2 3.4 5 0.4 0.9 0.8 1.9 0.8 3 0 1.2-0.3 2.1-0.4 3-0.6 3.9-0.8 7.9-0.1 11.7 0.7 3.8 2.5 7.4 5.2 10.2 2.7 2.8 6.3 4.7 10.1 5.5 3.9 0.7 7.9 0.4 11.7-0.9z"/>
							</g>
						</g>
						<g id="&lt;Group&gt;">
							<path id="&lt;Path&gt;" class="s15" d="m159.8 343.3c0 0 13.1 15.2 7.2 25-5.6 9.4-18.6-0.6-19.5-1.3 0.7 0.8 12.3 15.1 5.4 24.3-7.2 9.6-18.4-2.7-19.2-3.5 0.4 1 5.6 13.9-1.2 19.7-11.8 10-25.9-22.6-37.7-26.7 0 0-9.3 19.2-9.7 19.7 0 0-14-30.7-7.6-46.3 3.4-8.2 11.8-6.7 11.8-6.7 0 0-5.7-9.4-0.4-16.8 2.6-3.8 11.1-2.9 11.1-2.9 0 0-4.2-7.7 0.9-14.1 4-5 9-4.4 12.1-3.7 18.3 4.1 46.8 33.3 46.8 33.3z"/>
							<g id="&lt;Group&gt;">
								<path id="&lt;Path&gt;" class="s9" d="m114.1 310.4c-0.2-0.1-0.1-0.3 0.1-0.2 17.7 6 35.4 18.1 46.3 33.5 0.3 0.5 0.4 3.4 0 2.8-10.9-13.5-28.8-26.8-46.4-36.1z"/>
								<path id="&lt;Path&gt;" class="s9" d="m99.9 327.5c-0.2-0.1-0.1-0.4 0.1-0.3 18.3 6.3 37.8 20.5 48.3 39.7 0.3 0.7 0 1.6-0.5 0.9-7.9-12.3-32.1-32-47.9-40.3z"/>
								<path id="&lt;Path&gt;" class="s9" d="m134 389.4c-10.7-18-26.2-30.8-44-41.7-0.2-0.1 0-0.4 0.3-0.4 10.1 3 20.7 11.1 28.4 18.1 7.4 6.7 12.7 14.2 15.9 23.6 0.2 0.4-0.4 0.8-0.6 0.4z"/>
							</g>
							<path id="&lt;Path&gt;" class="s9" d="m160.2 343.3c0.4 0.6-1.9 0.5-1.5 1.1 4.4 6.8 11.7 19.3 7 24.1-3.8 3.9-11.6 1.5-14.2-0.6l-6.6-5.3 4.4 7.3c1.9 3.2 3.5 6.8 4.2 10.4 0.8 3.6 0.6 7.3-1.4 10-2 2.8-5.2 4-8.4 2.8-3.2-1-6.3-3.6-8.7-6.3l-6.6-7.6 3.8 9.3c1 2.5 1.8 5.3 2.1 8 0.3 2.7 0.2 5.5-0.9 7.7-1.1 2.1-3.4 3.7-5.7 3.5-2.5-0.1-5-1.6-7.2-3.2-4.5-3.5-8.4-8-12.4-12.2-2-2.2-4-4.3-6.1-6.4-2.2-2-4.4-4.1-7.2-5.1 2.7 1.3 4.6 3.6 6.6 5.7 1.9 2.2 3.7 4.5 5.6 6.7 3.6 4.6 7.4 9.2 12 13.2 2.3 1.8 5 3.8 8.5 4.2 3.6 0.3 7-1.9 8.6-4.9 1.6-3.1 1.7-6.5 1.4-9.5-0.3-3.2-1.1-6.1-2.2-9l-2.9 1.7c2.8 3.2 5.9 6 10.2 7.6 2.1 0.7 4.6 0.9 6.9 0 2.3-0.8 4.1-2.4 5.4-4.2 2.8-3.9 2.7-8.7 1.8-12.7-1-4.1-2.7-7.8-4.9-11.4l-2.2 2c3.4 2.6 11.8 6.2 18.4 1 7.6-8.2-5.2-25-7.8-27.9z"/>
						</g>
					</g>
				</g>
				<g id="&lt;Group&gt;">
					<g id="&lt;Group&gt;">
						<path id="&lt;Path&gt;" class="s10" d="m270.9 675l253-0.9c0.6-0.6-49.2-239.2-85.1-287-18.1-23.9-66.6-22.2-84.8 8.7-25.2 42.7-83.1 279.2-83.1 279.2z"/>
					</g>
				</g>
				<g id="&lt;Group&gt;">
					<g id="&lt;Group&gt;">
						<path id="&lt;Path&gt;" class="s15" d="m470.6 410.4c62.9 86.4 131.8 207.3 109.6 236.8-24.7 32.8-105.7-48.1-108-53.9-2.5-6.5-31.3-87.2-43-162.3-13-82.4 25.8-41.9 41.4-20.6z"/>
						<g id="&lt;Group&gt;">
							<path id="&lt;Path&gt;" class="s10" d="m444.6 517.3l95.3-10.6c0 0-37-58.4-68.4-97-31.5-38.6-61.1-50-51.8 0.5 9.3 50.5 24.9 107.1 24.9 107.1z"/>
							<path id="&lt;Path&gt;" class="s9" d="m444.4 499.6c6.7-1.5 13.6-2.3 20.5-3.2q10-1.4 20.1-2.6c13.6-1.7 27.2-3.4 40.9-4 0.3 0 0.4 0.5 0 0.5-13.4 2.7-27 4.2-40.6 5.9q-10.1 1.2-20.2 2.2c-6.8 0.8-13.8 1.7-20.7 1.8-0.3 0-0.4-0.5 0-0.6z"/>
							<path id="&lt;Path&gt;" class="s9" d="m426.8 443.7c0-0.1-0.3-0.1-0.3 0.1 1.2 7.4 2.8 14.8 4.5 22.1-1.5-3.2-3.1-6.5-4.7-9.7-0.1-0.2-0.6-0.1-0.5 0.2 0.9 2.4 1.8 4.7 3 7q1.5 2.9 3 5.6c0.9 3.9 11.3 46.2 12.2 48.4 0.1 0.3 0.7 0.2 0.6-0.1-0.9-3.4-9.4-49-17.8-73.6z"/>
						</g>
					</g>
				</g>
				<g id="&lt;Group&gt;">
					<path id="&lt;Path&gt;" class="s9" d="m484.7 933.6h-291.5c9.7-39.3 131.3-467.5 133-467.2 2 0.4 74.6 1.7 81.7 3.3 2.7 0.7 38.2 110.8 38.8 119.7 0.5 5.6 65.4 25.6 66.7 26.3 1.3 0.7 3.1 11 3.1 11 0 0-56.4 1.8-59.4 2-2.4 0.2 21.8 217.8 27.6 304.9z"/>
					<g id="&lt;Group&gt;">
						<path id="&lt;Path&gt;" class="s4" d="m323.5 477.5c0 0 26.6-87.9 29.7-94.2 3.1-6.3 10.3-12.3 10.3-12.3l-30.5 106.9z"/>
						<path id="&lt;Path&gt;" class="s16" d="m323.5 477.5c0 0 26.6-87.9 29.7-94.2 3.1-6.3 10.3-12.3 10.3-12.3l-30.5 106.9z"/>
						<path id="&lt;Path&gt;" class="s9" d="m332.2 473.2c-0.3 1.6-1.7 2.7-3 2.4-1.4-0.2-2.3-1.7-2-3.3 0.3-1.7 1.7-2.8 3-2.5 1.4 0.2 2.3 1.8 2 3.4z"/>
					</g>
					<g id="&lt;Group&gt;">
						<path id="&lt;Path&gt;" class="s4" d="m391.1 480.3l14 1.1c0 0 14.8-62.2 17.6-75.9 2.8-13.6 13.8-30.8 13.8-30.8 0 0-2.8-4-9.9-5.2 0 0-16.4 25.8-20.2 42.7-3.3 14.8-15.3 68.1-15.3 68.1z"/>
						<path id="&lt;Path&gt;" class="s16" d="m391.1 480.3l14 1.1c0 0 14.8-62.2 17.6-75.9 2.8-13.6 13.8-30.8 13.8-30.8 0 0-2.8-4-9.9-5.2 0 0-16.4 25.8-20.2 42.7-3.3 14.8-15.3 68.1-15.3 68.1z"/>
						<path id="&lt;Path&gt;" class="s9" d="m403 474.5c0 1.8-1.6 3.4-3.4 3.4-1.9 0-3.4-1.6-3.4-3.4 0-1.9 1.5-3.4 3.4-3.4 1.8 0 3.4 1.5 3.4 3.4z"/>
					</g>
					<g id="&lt;Group&gt;">
						<g id="&lt;Group&gt;">
							<path id="&lt;Path&gt;" class="s7" d="m357.1 669.6l42.5-1-0.5-22.7-42.6 1.1z"/>
							<path id="&lt;Path&gt;" class="s3" d="m355.9 669.7l0.3 10.8 16.4 15.9 12.9-0.3 15.6-16.8-0.3-10.8z"/>
							<path id="&lt;Path&gt;" class="s3" d="m378.9 802.3l5.8-0.1 0.8-106.1-12.9 0.3z"/>
						</g>
						<g id="&lt;Group&gt;">
							<path id="&lt;Path&gt;" class="s10" d="m313.6 643.6l32.8-4.1-0.8-4.4-32.2 7.3z"/>
							<path id="&lt;Path&gt;" class="s10" d="m314.4 648l32.7-4.1-0.7-4.4-32.2 7.3z"/>
							<path id="&lt;Path&gt;" class="s10" d="m315.1 652.4l32.8-4.2-0.8-4.3-32.2 7.3z"/>
							<path id="&lt;Path&gt;" class="s10" d="m315.9 656.8l32.7-4.2-0.7-4.4-32.2 7.4z"/>
							<path id="&lt;Path&gt;" class="s10" d="m316.6 661.2l32.8-4.2-0.8-4.4-32.2 7.3z"/>
							<path id="&lt;Path&gt;" class="s10" d="m317.4 665.6l32.7-4.2-0.7-4.4-32.2 7.3z"/>
							<path id="&lt;Path&gt;" class="s10" d="m318.1 670l32.8-4.2-0.8-4.4-32.2 7.3z"/>
							<path id="&lt;Path&gt;" class="s10" d="m318.9 674.4l32.8-4.2-0.8-4.4-32.2 7.3z"/>
							<path id="&lt;Path&gt;" class="s10" d="m319.7 678.8l32.7-4.2-0.7-4.4-32.3 7.3z"/>
							<path id="&lt;Path&gt;" class="s10" d="m320.4 683.2l32.8-4.2-0.8-4.4-32.2 7.3z"/>
							<path id="&lt;Path&gt;" class="s10" d="m321.2 687.6l32.7-4.2-0.7-4.4-32.3 7.3z"/>
							<path id="&lt;Path&gt;" class="s10" d="m321.9 691.9l32.8-4.1-0.8-4.4-32.2 7.3z"/>
							<path id="&lt;Path&gt;" class="s10" d="m322.7 696.3l32.7-4.1-0.7-4.4-32.2 7.3z"/>
							<path id="&lt;Path&gt;" class="s10" d="m323.4 700.7l32.8-4.1-0.8-4.4-32.2 7.3z"/>
							<path id="&lt;Path&gt;" class="s10" d="m324.2 705.1l32.7-4.1-0.7-4.4-32.2 7.3z"/>
							<path id="&lt;Path&gt;" class="s10" d="m324.9 709.5l32.8-4.1-0.8-4.4-32.2 7.3z"/>
							<path id="&lt;Path&gt;" class="s10" d="m325.7 713.9l32.7-4.1-0.7-4.4-32.2 7.3z"/>
							<path id="&lt;Path&gt;" class="s10" d="m326.4 718.3l32.8-4.1-0.8-4.4-32.2 7.3z"/>
							<path id="&lt;Path&gt;" class="s10" d="m368.2 790.4l5.6-0.9-22.5-155.4-9.6 1.6z"/>
						</g>
						<g id="&lt;Group&gt;">
							<path id="&lt;Path&gt;" class="s7" d="m398.4 661.9l42.1 6.2 3.3-22.4-42.1-6.2z"/>
							<path id="&lt;Path&gt;" class="s10" d="m397.3 661.7l-1.6 10.7 13.5 18.5 12.8 1.9 18.2-13.9 1.5-10.7z"/>
							<path id="&lt;Path&gt;" class="s10" d="m397.4 796.4l5.7 0.8 18.9-104.4-12.8-1.9z"/>
						</g>
						<g id="&lt;Group&gt;">
							<path id="&lt;Path&gt;" class="s9" d="m438 719.7c0 0-41.8 9.3-97.1 0.1 0 0-4.1 76.7-1.8 81.1 2.4 4.3 34.5 16.5 46.2 17.6 11.7 1.1 49.3-8.9 54.7-15.5 5.5-6.5-2-83.3-2-83.3z"/>
							<path id="&lt;Compound Path&gt;" fill-rule="evenodd" class="s8" d="m438 719.7q1.8 16.9 3.1 33.9c0.9 15.6 2.7 31.4 0.6 46.9-0.2 1.5-1 3.1-2.2 4-4.7 3.6-10.2 5.3-15.6 7.3-5.4 1.8-10.9 3.4-16.5 4.7-8.3 1.7-17 4-25.6 2.4-8.4-1.7-16.5-4.5-24.5-7.5-6-2.4-12.2-4.7-17.5-8.4-0.6-0.5-1.3-1.1-1.7-2.1-0.3-0.9-0.3-1.5-0.4-2.3-0.3-3.6-0.3-7.2-0.3-10.7 0.3-22.8 1.5-45.4 2.7-68.1l0.1-0.9 0.8 0.1c32 5.3 65 6.3 97 0.7zm0 0c-24 4.8-48.7 5.6-73 3.7-7.8-0.5-15.6-1.5-23.3-2.7-1 25.9-3 51.8-2 77.7 0 0.7 0.1 1.4 0.3 1.8 0.4 0.9 1.8 1.7 2.7 2.3 9.7 5.5 20.6 9.3 31.3 12.5 5.4 1.6 10.9 3.1 16.4 2.5 11.2-1 22.3-3.9 33-7.3 5.1-1.8 10.7-3.6 15.2-6.8 1.1-0.8 1.5-1.8 1.8-3.2 2.2-15.4 0.5-31.1-0.1-46.6q-0.9-16.9-2.3-33.9zm-96.3 1q0-0.4 0-0.8l-0.9 0.7q0.4 0.1 0.9 0.1z"/>
						</g>
					</g>
				</g>
				<g id="&lt;Group&gt;">
					<g id="&lt;Group&gt;">
						<g id="&lt;Group&gt;">
							<g id="&lt;Group&gt;">
								<path id="&lt;Path&gt;" class="s15" d="m367.9 409.8c13.6 7.8 41-10.3 52.1-28 0.8-1.2 1.9-51.1 2.5-61.2 0.1-2.1-64 11.6-64 11.6 0 0 4.9 21.5 3.8 39q-0.2 2.2-0.7 4.1c0 0.2-0.1 0.4-0.1 0.7-1.7 7.8-0.6 29.8 6.4 33.8z"/>
							</g>
							<path id="&lt;Path&gt;" class="s9" d="m361.5 376c2 0.4 4.1 0.7 6.5 0.7 33.1 1.2 47.4-38.6 52-56.2-11.6 1.1-61.6 11.7-61.6 11.7 0 0 5 21.5 3.9 39-0.1 1.5-0.3 2.9-0.7 4.1 0 0.2-0.1 0.4-0.1 0.7z"/>
						</g>
						<g id="&lt;Group&gt;">
							<g id="&lt;Group&gt;">
								<path id="&lt;Path&gt;" class="s15" d="m437.5 249.1c4.9 22.9-12.4 86.4-29.6 99.4-24.8 18.9-62.6 17.6-78-11.6-14.9-28.3 9.2-110.6 28.1-122.2 27.8-17 72.3 0.5 79.5 34.4z"/>
							</g>
							<g id="&lt;Group&gt;">
								<g id="&lt;Group&gt;">
									<path id="&lt;Path&gt;" class="s9" d="m378.6 284c0.1-0.2 0.3 0.3 0.2 0.5-1.2 4.2-1.8 9.3 1.7 11.7 0.1 0.1 0 0.3-0.1 0.2-4.6-1.8-3.6-8.6-1.8-12.4z"/>
									<path id="&lt;Path&gt;" class="s9" d="m383.6 280.5c7 1.2 4.1 15.2-2.4 14.1-6.5-1.1-3.5-15.2 2.4-14.1z"/>
								</g>
								<g id="&lt;Group&gt;">
									<path id="&lt;Path&gt;" class="s9" d="m352.9 279.2c0-0.2-0.4 0.1-0.4 0.3-0.8 4.4-2.4 9.2-6.7 9.9-0.1 0-0.1 0.2 0 0.2 5 0.3 7-6.2 7.1-10.4z"/>
									<path id="&lt;Path&gt;" class="s9" d="m349.9 273.8c-6.8-1.9-10.3 11.9-3.9 13.8 6.2 1.8 9.7-12.1 3.9-13.8z"/>
								</g>
								<path id="&lt;Path&gt;" class="s9" d="m392 275c-1.9-0.5-3.7-1.3-5.5-1.9-2.2-0.8-3.9-1.1-5.4-3-0.7-1-0.4-2.9 0.5-3.7 2.1-1.9 4.9-1.7 7.5-0.9 2.9 0.9 4.8 2.3 6.5 4.7 1.5 2.4-1 5.4-3.6 4.8z"/>
								<path id="&lt;Path&gt;" class="s9" d="m346.3 266.4c2 0.1 3.9-0.1 5.9-0.3 2.2-0.1 4 0.1 5.9-1.4 1-0.7 1.3-2.6 0.6-3.6-1.5-2.4-4.3-3-7-2.9-2.9 0-5.2 0.8-7.5 2.7-2.2 1.8-0.5 5.4 2.1 5.5z"/>
								<path id="&lt;Path&gt;" class="s9" d="m372.8 325.4c-1.3 0.8-2.6 2-4.2 1.8-1.6-0.2-3.2-1.2-4.5-2.1-0.1 0-0.3 0.1-0.2 0.2 0.8 1.9 2.9 3.5 5 3.5 2.1 0.1 3.4-1.4 4.2-3.1 0.1-0.2-0.2-0.4-0.3-0.3z"/>
								<g id="&lt;Group&gt;">
									<g id="&lt;Group&gt;">
										<path id="&lt;Path&gt;" class="s9" d="m370.1 310.8c-3.2 3.3-7.2 4.6-11.2 4.6-1.8 0-3.6-0.4-5.4-0.9q-0.5-0.1-1-0.3c-0.3-0.1-0.6-0.2-0.9-0.4-0.5-0.2-0.7-0.6-0.7-1.1v-0.1c0.1-0.1 0.1-0.2 0.2-0.4q0 0 0 0l0.1-0.4c0.6-3.4 2-8.4 2-8.4-1.4 0.4-8.2 1.9-7.7 0.2 3.8-14.3 8.1-30.2 15-43.6 0.2-0.4 0.9-0.2 0.8 0.3-3.2 13.9-8.8 27.1-12.2 41 2.1-0.4 5.7-1.1 7.4-0.7 0.4 0.2-2.8 9.6-3 11.2q0 0 0 0.1c5.5 1.9 10 1.1 16.3-1.5 0.4-0.2 0.6 0.2 0.3 0.4z"/>
									</g>
								</g>
								<g id="&lt;Group&gt;">
									<path id="&lt;Path&gt;" class="s9" d="m356.2 314.5c0 0 2.5 4.4 6.5 6.3 1.5 0.8 3.1 1.2 4.9 0.9 3.7-0.6 4.1-3.8 3.8-6.7-0.3-2.3-1.1-4.4-1.1-4.4 0 0-5.8 4.3-14.1 3.9z"/>
									<path id="&lt;Path&gt;" class="s17" d="m362.7 320.8c1.5 0.8 3.1 1.2 4.9 0.9 3.7-0.6 4.1-3.8 3.8-6.7-3.9 0-7.9 2.2-8.7 5.8z"/>
								</g>
								<path id="&lt;Compound Path&gt;" fill-rule="evenodd" class="s9" d="m390.9 354.9c-3 2.5-12.4 6.6-22.6 6.6-10.1 0-23.2-7.9-26.2-11.7-3-3.8-3.8-19.1-2.5-28.8 1.3-9.8 3.8-15.1 12.4-17.3 7.7-1.9 14.6-0.5 19.6 1.2 7.4 2.6 11.2 6.8 13.3 11.1 2.7 5.6 10.7 35.2 6 38.9zm-17.9-42.9c-1.1-2.2-3.3-4.4-7.4-5.8-2.8-1-6.6-1.7-10.8-0.8-4.8 1-6.1 3.8-6.8 8.8-0.6 5.1-0.1 14.5 1.6 16.5 1.7 2 9.2 4 14.8 4.1 5.6 0.1 10.6-1.3 12.3-2.5 2.6-2-2.1-17.3-3.7-20.3z"/>
							</g>
							<g id="&lt;Group&gt;">
								<path id="&lt;Path&gt;" class="s18" d="m432.7 299.6c-4.3-3.3-10.4-20.4-13.2-27.4-2.9-7.4 3.1-38.1 5.1-47.2q1.2 1.2 2.3 2.6c0.8 0.8 1.5 1.8 2.2 2.7 1.5 1.9 2.8 3.9 3.9 6.1 1.9 3.7 3.5 7.6 4.5 11.9 2.5 11.1 0.2 31.4-4.8 51.3z"/>
								<g id="&lt;Group&gt;">
									<path id="&lt;Path&gt;" class="s9" d="m360 237c3.9 7.4 11.3 12.5 19.8 13.1 8.2 0.5 17.3-3.1 21.9-10.1 0.2-0.2 0.5 0 0.3 0.2-4.9 7.5-13.1 12.7-22.4 11.8-8.6-0.8-16.7-6.7-20.1-14.7-0.2-0.4 0.3-0.6 0.5-0.3z"/>
									<path id="&lt;Path&gt;" class="s9" d="m398.2 184.3c13.6 3.5 24.4 14 27.3 24.5 1.7 6.4 0.8 12.3-1.5 17.9-0.1 0.3-0.6 0.1-0.5-0.1 3-9.1 0.8-20.8-7.6-29.6-8.1-8.4-20.3-13.3-32.3-11.7-6.2 0.8-11.7 3.4-15.2 7.2-0.3 0.5-1.3-0.1-1-0.5 5.8-7.7 18.4-10.9 30.8-7.7z"/>
									<path id="&lt;Path&gt;" class="s9" d="m311.5 195.4c3.8-6.2 9.9-10.9 16.7-13.2 9.7-3.3 19-0.3 28.2 2.9 0.3 0.1 0.1 0.5-0.1 0.4-7.9-2.7-16-4.9-24.3-2.9-6.7 1.7-13 5.7-17.1 11.3-8.6 11.6-7.1 28.9 3.6 38.8 6.1 5.5 14.5 8.4 22.7 7.8 0.3-0.1 0.4 0.4 0.1 0.5-15.1 1.6-30-8.6-33.2-23.5-1.5-7.4-0.5-15.5 3.4-22.1z"/>
									<path id="&lt;Path&gt;" class="s9" d="m438.9 264.4c0 0 18.7-21.6 11-38.3-4.3-9.5-25.1-13.1-25.1-13.1 0 0-3.9-13.3-20-21.1-16.2-7.8-38.9-2.4-38.9-2.4 0 0-14.2-13.1-31.4-7.9-24.1 7.3-28.8 40.4-9.8 55.7 13.4 10.7 36.9 2.1 36.9 2.1 1.9 0.7 19.2 17.4 38.5 2.9 0 0 9.8 13.8 22.7 8.7 0 0 3.1 12.4 16.1 13.4z"/>
								</g>
							</g>
							<g id="&lt;Group&gt;">
								<path id="&lt;Path&gt;" class="s15" d="m414.6 297.5c0 0 16.4-19.6 25.4-13.6 9.1 6.1-4.5 35.3-16 38.5-11.5 3.2-14.6-7.4-14.6-7.4z"/>
								<path id="&lt;Path&gt;" class="s9" d="m435.9 292.2c0.2 0 0.2 0.3 0.1 0.3-8.1 2.5-12.8 9.4-16.3 16.6 2.5-2.7 5.8-4 9.4-0.9 0.2 0.2 0 0.5-0.2 0.4-3.1-0.9-5.5-0.6-7.9 1.8-1.7 1.7-2.9 3.9-4.2 5.9-0.4 0.6-1.6 0.1-1.3-0.6q0.1-0.1 0.1-0.2c0.7-10 9.6-23.2 20.3-23.3z"/>
							</g>
						</g>
					</g>
					<g id="&lt;Group&gt;">
						<path id="&lt;Path&gt;" class="s10" d="m360.9 371.7l15.5 35.1 44.4-42.7 13.1 14c0 0-42.5 69.3-42.9 66l-15.8-30.2-20.4 22.2-0.2-53.8z"/>
						<path id="&lt;Path&gt;" class="s9" d="m353.2 409.5c0.3-8.9 0.3-17.8 1-26.7 0-0.3 0.5-0.4 0.6-0.1 2 8.5 0.8 42.4 1.2 50.5q0 0 0.1 0c0.8-1 18.9-19.6 19.1-19.3 3.4 4.8 15 26.8 15.8 28.8 6.4-11.6 35.6-53.6 43.4-64.7 0.2-0.3 0.7 0 0.5 0.3-5.6 12.3-42.8 68.9-43.3 68.7-0.4 0.3-14.8-26.8-16.6-31.9-3 4-21.2 24.9-21.3 23.6-0.8-8.9-0.8-20.3-0.5-29.2z"/>
					</g>
				</g>
				<g id="&lt;Group&gt;">
					<g id="&lt;Group&gt;">
						<g id="&lt;Group&gt;">
							<path id="&lt;Path&gt;" class="s1" d="m351.8 552.3l-61.1-169.9 16.9-6 61.1 169.8z"/>
							<g id="&lt;Group&gt;">
								<path id="&lt;Path&gt;" class="s1" d="m266.5 395.6c-0.2-0.6 0.1-1.3 0.7-1.6l24.1-10 1.7 4.8-24.9 7.6c-0.7 0.2-1.3-0.1-1.6-0.8z"/>
								<path id="&lt;Path&gt;" class="s1" d="m269.4 403.7c-0.2-0.6 0.1-1.3 0.7-1.6l24.1-10 1.7 4.8-24.9 7.6c-0.7 0.2-1.3-0.1-1.6-0.8z"/>
								<path id="&lt;Path&gt;" class="s1" d="m272.3 411.8c-0.2-0.6 0.1-1.3 0.7-1.6l24.1-10 1.7 4.8-24.9 7.6c-0.6 0.2-1.3-0.1-1.6-0.8z"/>
								<path id="&lt;Path&gt;" class="s1" d="m275.3 419.9c-0.3-0.6 0-1.3 0.7-1.6l24-10 1.8 4.8-25 7.6c-0.6 0.2-1.3-0.1-1.5-0.8z"/>
								<path id="&lt;Path&gt;" class="s1" d="m278.2 428c-0.3-0.6 0-1.3 0.7-1.6l24-10 1.8 4.8-25 7.6c-0.6 0.2-1.3-0.1-1.5-0.8z"/>
								<path id="&lt;Path&gt;" class="s1" d="m281.1 436.1c-0.2-0.6 0.1-1.3 0.7-1.6l24-10 1.8 4.8-25 7.6c-0.6 0.2-1.3-0.2-1.5-0.8z"/>
								<path id="&lt;Path&gt;" class="s1" d="m284 444.2c-0.2-0.6 0.1-1.3 0.7-1.6l24.1-10 1.7 4.8-25 7.6c-0.6 0.2-1.3-0.2-1.5-0.8z"/>
								<path id="&lt;Path&gt;" class="s1" d="m286.9 452.3c-0.2-0.6 0.1-1.3 0.7-1.6l24.1-10 1.7 4.8-24.9 7.6c-0.7 0.2-1.4-0.2-1.6-0.8z"/>
								<path id="&lt;Path&gt;" class="s1" d="m289.8 460.4c-0.2-0.6 0.1-1.3 0.7-1.6l24.1-10 1.7 4.8-24.9 7.6c-0.7 0.2-1.4-0.2-1.6-0.8z"/>
								<path id="&lt;Path&gt;" class="s1" d="m292.7 468.5c-0.2-0.6 0.1-1.3 0.7-1.6l24.1-10 1.7 4.8-24.9 7.6c-0.7 0.2-1.3-0.2-1.6-0.8z"/>
								<path id="&lt;Path&gt;" class="s1" d="m295.6 476.6c-0.2-0.7 0.1-1.4 0.7-1.6l24.1-10.1 1.7 4.9-24.9 7.6c-0.6 0.2-1.3-0.2-1.6-0.8z"/>
								<path id="&lt;Path&gt;" class="s1" d="m298.5 484.7c-0.2-0.7 0.1-1.4 0.8-1.6l24-10.1 1.7 4.9-24.9 7.6c-0.6 0.2-1.3-0.2-1.6-0.8z"/>
								<path id="&lt;Path&gt;" class="s1" d="m301.5 492.8c-0.3-0.7 0-1.4 0.7-1.6l24-10.1 1.8 4.9-25 7.6c-0.6 0.1-1.3-0.2-1.5-0.8z"/>
								<path id="&lt;Path&gt;" class="s1" d="m304.4 500.9c-0.3-0.7 0.1-1.4 0.7-1.6l24-10.1 1.8 4.9-25 7.5c-0.6 0.2-1.3-0.1-1.5-0.7z"/>
								<path id="&lt;Path&gt;" class="s1" d="m307.3 509c-0.2-0.7 0.1-1.4 0.7-1.6l24-10.1 1.8 4.9-25 7.5c-0.6 0.2-1.3-0.1-1.5-0.7z"/>
								<path id="&lt;Path&gt;" class="s1" d="m310.2 517.1c-0.2-0.7 0.1-1.4 0.7-1.6l24.1-10.1 1.7 4.8-24.9 7.6c-0.7 0.2-1.4-0.1-1.6-0.7z"/>
								<path id="&lt;Path&gt;" class="s1" d="m313.1 525.1c-0.2-0.6 0.1-1.3 0.7-1.6l24.1-10 1.7 4.8-24.9 7.6c-0.7 0.2-1.4-0.1-1.6-0.8z"/>
								<path id="&lt;Path&gt;" class="s1" d="m316 533.2c-0.2-0.6 0.1-1.3 0.7-1.6l24.1-10 1.7 4.8-24.9 7.6c-0.7 0.2-1.4-0.1-1.6-0.8z"/>
								<path id="&lt;Path&gt;" class="s1" d="m318.9 541.3c-0.2-0.6 0.1-1.3 0.7-1.6l24.1-10 1.7 4.8-24.9 7.6c-0.7 0.2-1.3-0.1-1.6-0.8z"/>
								<path id="&lt;Path&gt;" class="s1" d="m321.8 549.4c-0.2-0.6 0.1-1.3 0.7-1.6l24.1-10 1.7 4.8-24.9 7.6c-0.6 0.2-1.3-0.1-1.6-0.8z"/>
								<path id="&lt;Path&gt;" class="s1" d="m324.8 557.5c-0.3-0.6 0-1.3 0.7-1.6l24-10 1.7 4.8-24.9 7.6c-0.6 0.2-1.3-0.1-1.5-0.8z"/>
							</g>
							<path id="&lt;Path&gt;" class="s13" d="m293 388.8l-7.2 2.2-1.6-4 7.1-3z"/>
							<path id="&lt;Path&gt;" class="s13" d="m295.9 396.9l-7 2.2-1.6-4.1 6.9-2.9z"/>
							<path id="&lt;Path&gt;" class="s13" d="m298.8 405l-6.8 2.1-1.6-4.1 6.7-2.8z"/>
							<path id="&lt;Path&gt;" class="s13" d="m301.8 413.1l-6.6 2-1.7-4.1 6.5-2.7z"/>
							<path id="&lt;Path&gt;" class="s13" d="m304.7 421.2l-6.4 1.9-1.6-4.1 6.2-2.6z"/>
							<path id="&lt;Path&gt;" class="s13" d="m307.6 429.3l-6.2 1.9-1.6-4.2 6-2.5z"/>
							<path id="&lt;Path&gt;" class="s13" d="m310.5 437.4l-5.9 1.8-1.7-4.2 5.8-2.4z"/>
							<path id="&lt;Path&gt;" class="s13" d="m313.4 445.5l-5.7 1.7-1.7-4.2 5.7-2.3z"/>
							<path id="&lt;Path&gt;" class="s13" d="m316.3 453.6l-5.5 1.7-1.7-4.3 5.5-2.2z"/>
							<path id="&lt;Path&gt;" class="s13" d="m319.2 461.7l-5.3 1.6-1.6-4.3 5.2-2.1z"/>
							<path id="&lt;Path&gt;" class="s13" d="m322.1 469.8l-5 1.5-1.7-4.3 5-2.1z"/>
							<path id="&lt;Path&gt;" class="s13" d="m325 477.9l-4.8 1.4-1.7-4.3 4.8-2z"/>
							<path id="&lt;Path&gt;" class="s13" d="m328 486l-4.7 1.4-1.7-4.4 4.6-1.9z"/>
							<path id="&lt;Path&gt;" class="s13" d="m330.9 494.1l-4.4 1.3-1.7-4.4 4.3-1.8z"/>
							<path id="&lt;Path&gt;" class="s13" d="m333.8 502.2l-4.2 1.2-1.7-4.3 4.1-1.8z"/>
							<path id="&lt;Path&gt;" class="s13" d="m336.7 510.3l-4 1.2-1.7-4.4 4-1.7z"/>
							<path id="&lt;Path&gt;" class="s13" d="m339.6 518.3l-3.8 1.2-1.7-4.4 3.8-1.6z"/>
							<path id="&lt;Path&gt;" class="s13" d="m342.5 526.4l-3.5 1.1-1.7-4.4 3.5-1.5z"/>
							<path id="&lt;Path&gt;" class="s13" d="m345.4 534.5l-3.3 1-1.7-4.4 3.3-1.4z"/>
							<path id="&lt;Path&gt;" class="s13" d="m348.3 542.6l-3.1 1-1.7-4.5 3.1-1.3z"/>
							<path id="&lt;Path&gt;" class="s13" d="m348.4 551.6l-1.8-4.5 2.9-1.2 1.8 4.8z"/>
						</g>
					</g>
					<g id="&lt;Group&gt;">
						<path id="&lt;Path&gt;" class="s15" d="m571.2 651.1c-26.7 10.1-91.6 1.6-195.3-43-14.4-6.2 45.9-96.6 61.6-90.8 19.7 7.3 89.3 33.2 94.5 36.3 43.7 26 57.2 90.7 39.2 97.5z"/>
						<g id="&lt;Group&gt;">
							<g id="&lt;Group&gt;">
								<g id="&lt;Group&gt;">
									<path id="&lt;Path&gt;" class="s15" d="m473 552.4c0 0-4.7-4.8-25.4-34.5-14.3-20.5-62.1-61.3-130.4-45-26.2 6.3-33.2 27.4-4.9 25.7 20-1.2 33.7-3.7 40.3-2.3 0 0-22.8 20.5-20.7 38.1 0.9 7.9 3.8 29.3 8.5 45.7 0 0 3.9-0.1 8.7-0.9 0 0 3.3 22.1 27.5 28.7z"/>
								</g>
							</g>
							<g id="&lt;Group&gt;">
								<path id="&lt;Path&gt;" class="s15" d="m430.9 500.5c-12.7-3.2-39.8-9.4-63.7-6.9-26.5 2.9-76.9 15.5-74.6 35.1 1.7 14.3 21.3 11.2 21.3 11.2 0 0-19.7 9.6-15.3 22.2 3.9 11.6 19 8.2 19 8.2 0 0-11 7.9-5 18.3 7.2 12.4 29-6.1 47.1 0.2 4.1 1.4 71.2-88.3 71.2-88.3z"/>
								<g id="&lt;Group&gt;">
									<path id="&lt;Path&gt;" class="s9" d="m374.9 521.2c-12.4-1-41.3 3.9-60.8 18.2-0.4 0.3-0.4 0.8 0.1 0.6 24.8-11.2 49.9-16.8 60.7-18.6 0.2 0 0.1-0.2 0-0.2z"/>
								</g>
								<g id="&lt;Group&gt;">
									<path id="&lt;Path&gt;" class="s9" d="m377 548.1c-10.8 0.2-40.3 6.6-59.6 21.8-0.4 0.3-0.4 0.8 0.1 0.6 25.4-12.8 48.8-19.8 59.5-22.2 0.2 0 0.1-0.2 0-0.2z"/>
								</g>
							</g>
						</g>
						<g id="&lt;Group&gt;">
							<path id="&lt;Path&gt;" class="s9" d="m451.1 522.9c20.8 5.4 41.1 12.2 61.2 19.9 10 4.1 20.6 7.9 28.8 15.2 8.2 7.1 15.4 15.4 20.6 24.8-8.2-10.3-17.8-19.8-29.1-26.8-6.9-3.9-14.4-6.5-21.8-9.4-17.6-6.9-42.6-16.3-59.7-23.7z"/>
						</g>
					</g>
				</g>
			</g>
		</g>
	</g>
	<g id="Table">
		<g id="&lt;Group&gt;">
			<path id="&lt;Path&gt;" class="s9" d="m94.9 933.1c259.5-1.3 550.7-1.3 810.2 0-259.5 1.2-550.7 1.2-810.2 0z"/>
		</g>
	</g>
</svg>